<?xml version="1.0" encoding="UTF-8" standalone="no"?>
<!DOCTYPE svg PUBLIC "-//W3C//DTD SVG 1.1//EN"
 "http://www.w3.org/Graphics/SVG/1.1/DTD/svg11.dtd">
<!-- Generated by graphviz version 9.0.0 (20230911.1827)
 -->
<!-- Title: DFA Pages: 1 -->
<svg width="148pt" height="94pt"
 viewBox="0.00 0.00 147.99 93.99" xmlns="http://www.w3.org/2000/svg" xmlns:xlink="http://www.w3.org/1999/xlink">
<g id="graph0" class="graph" transform="scale(1 1) rotate(0) translate(4 89.99)">
<title>DFA</title>
<polygon fill="white" stroke="none" points="-4,4 -4,-89.99 143.99,-89.99 143.99,4 -4,4"/>
<!-- Q1 -->
<g id="node1" class="node">
<title>Q1</title>
<ellipse fill="none" stroke="black" cx="26.12" cy="-26.12" rx="22.12" ry="22.12"/>
<ellipse fill="none" stroke="black" cx="26.12" cy="-26.12" rx="26.12" ry="26.12"/>
<text text-anchor="middle" x="26.12" y="-20.7" font-family="Times New Roman,serif" font-size="14.00">Q1</text>
</g>
<!-- Q1&#45;&gt;Q1 -->
<g id="edge4" class="edge">
<title>Q1&#45;&gt;Q1</title>
<path fill="none" stroke="black" d="M17.23,-51.07C16.61,-61.45 19.58,-70.24 26.12,-70.24 30.01,-70.24 32.63,-67.14 33.99,-62.45"/>
<polygon fill="black" stroke="black" points="37.47,-62.85 34.88,-52.58 30.5,-62.22 37.47,-62.85"/>
<text text-anchor="middle" x="26.12" y="-72.69" font-family="Times New Roman,serif" font-size="14.00">a</text>
</g>
<!-- Q0 -->
<g id="node2" class="node">
<title>Q0</title>
<ellipse fill="none" stroke="black" cx="117.87" cy="-26.12" rx="22.12" ry="22.12"/>
<text text-anchor="middle" x="117.87" y="-20.7" font-family="Times New Roman,serif" font-size="14.00">Q0</text>
</g>
<!-- Q1&#45;&gt;Q0 -->
<g id="edge2" class="edge">
<title>Q1&#45;&gt;Q0</title>
<path fill="none" stroke="black" d="M52.6,-26.12C62.39,-26.12 73.7,-26.12 84.08,-26.12"/>
<polygon fill="black" stroke="black" points="83.76,-29.62 93.76,-26.12 83.76,-22.62 83.76,-29.62"/>
<text text-anchor="middle" x="73.99" y="-28.57" font-family="Times New Roman,serif" font-size="14.00">b</text>
</g>
<!-- Q0&#45;&gt;Q1 -->
<g id="edge1" class="edge">
<title>Q0&#45;&gt;Q1</title>
<path fill="none" stroke="black" d="M97.93,-15.57C91.69,-12.64 84.6,-9.85 77.74,-8.37 71.71,-7.07 65.41,-7.63 59.39,-9.17"/>
<polygon fill="black" stroke="black" points="58.66,-5.72 50.38,-12.33 60.98,-12.32 58.66,-5.72"/>
<text text-anchor="middle" x="73.99" y="-10.57" font-family="Times New Roman,serif" font-size="14.00">a</text>
</g>
<!-- Q0&#45;&gt;Q0 -->
<g id="edge3" class="edge">
<title>Q0&#45;&gt;Q0</title>
<path fill="none" stroke="black" d="M109.84,-47.18C108.85,-57.3 111.53,-66.24 117.87,-66.24 121.63,-66.24 124.1,-63.09 125.28,-58.41"/>
<polygon fill="black" stroke="black" points="128.76,-58.86 125.81,-48.69 121.77,-58.48 128.76,-58.86"/>
<text text-anchor="middle" x="117.87" y="-68.69" font-family="Times New Roman,serif" font-size="14.00">b</text>
</g>
</g>
</svg>
