<?xml version="1.0" encoding="UTF-8" standalone="no"?>
<!DOCTYPE svg PUBLIC "-//W3C//DTD SVG 1.1//EN"
 "http://www.w3.org/Graphics/SVG/1.1/DTD/svg11.dtd">
<!-- Generated by graphviz version 9.0.0 (20230911.1827)
 -->
<!-- Title: DFA Pages: 1 -->
<svg width="323pt" height="186pt"
 viewBox="0.00 0.00 322.73 185.81" xmlns="http://www.w3.org/2000/svg" xmlns:xlink="http://www.w3.org/1999/xlink">
<g id="graph0" class="graph" transform="scale(1 1) rotate(0) translate(4 181.81)">
<title>DFA</title>
<polygon fill="white" stroke="none" points="-4,4 -4,-181.81 318.73,-181.81 318.73,4 -4,4"/>
<!-- Q0 -->
<g id="node1" class="node">
<title>Q0</title>
<ellipse fill="none" stroke="black" cx="26.12" cy="-118.94" rx="22.12" ry="22.12"/>
<ellipse fill="none" stroke="black" cx="26.12" cy="-118.94" rx="26.12" ry="26.12"/>
<text text-anchor="middle" x="26.12" y="-113.51" font-family="Times New Roman,serif" font-size="14.00">Q0</text>
</g>
<!-- Q1 -->
<g id="node2" class="node">
<title>Q1</title>
<ellipse fill="none" stroke="black" cx="117.87" cy="-128.94" rx="22.12" ry="22.12"/>
<text text-anchor="middle" x="117.87" y="-123.51" font-family="Times New Roman,serif" font-size="14.00">Q1</text>
</g>
<!-- Q0&#45;&gt;Q1 -->
<g id="edge1" class="edge">
<title>Q0&#45;&gt;Q1</title>
<path fill="none" stroke="black" d="M49.92,-129.76C56.35,-132.31 63.45,-134.65 70.24,-135.94 75.04,-136.85 80.13,-136.96 85.12,-136.59"/>
<polygon fill="black" stroke="black" points="85.47,-140.07 94.88,-135.21 84.49,-133.14 85.47,-140.07"/>
<text text-anchor="middle" x="73.99" y="-138.39" font-family="Times New Roman,serif" font-size="14.00">a</text>
</g>
<!-- Q2 -->
<g id="node3" class="node">
<title>Q2</title>
<ellipse fill="none" stroke="black" cx="117.87" cy="-46.94" rx="22.12" ry="22.12"/>
<text text-anchor="middle" x="117.87" y="-41.51" font-family="Times New Roman,serif" font-size="14.00">Q2</text>
</g>
<!-- Q0&#45;&gt;Q2 -->
<g id="edge2" class="edge">
<title>Q0&#45;&gt;Q2</title>
<path fill="none" stroke="black" d="M47.04,-102.96C60.09,-92.49 77.26,-78.71 91.31,-67.44"/>
<polygon fill="black" stroke="black" points="93.23,-70.39 98.84,-61.4 88.85,-64.93 93.23,-70.39"/>
<text text-anchor="middle" x="73.99" y="-85.39" font-family="Times New Roman,serif" font-size="14.00">b</text>
</g>
<!-- Q4 -->
<g id="node5" class="node">
<title>Q4</title>
<ellipse fill="none" stroke="black" cx="292.6" cy="-121.94" rx="22.12" ry="22.12"/>
<text text-anchor="middle" x="292.6" y="-116.51" font-family="Times New Roman,serif" font-size="14.00">Q4</text>
</g>
<!-- Q0&#45;&gt;Q4 -->
<g id="edge8" class="edge">
<title>Q0&#45;&gt;Q4</title>
<path fill="none" stroke="black" d="M44.41,-137.65C51.73,-144.46 60.75,-151.56 70.24,-155.94 80.66,-160.75 84.31,-159.05 95.74,-159.94 115.35,-161.47 120.39,-161.49 139.99,-159.94 179.36,-156.82 189.5,-155.84 227.73,-145.94 239.06,-143 241.52,-141.03 252.48,-136.94 255.32,-135.88 258.28,-134.77 261.23,-133.64"/>
<polygon fill="black" stroke="black" points="262.22,-137.01 270.31,-130.18 259.72,-130.47 262.22,-137.01"/>
<text text-anchor="middle" x="161.74" y="-160.39" font-family="Times New Roman,serif" font-size="14.00">c</text>
</g>
<!-- Q1&#45;&gt;Q0 -->
<g id="edge4" class="edge">
<title>Q1&#45;&gt;Q0</title>
<path fill="none" stroke="black" d="M96.86,-121.08C90.81,-119.07 84.09,-117.2 77.74,-116.19 73.28,-115.48 68.56,-115.17 63.88,-115.12"/>
<polygon fill="black" stroke="black" points="63.86,-111.62 53.98,-115.42 64.08,-118.61 63.86,-111.62"/>
<text text-anchor="middle" x="73.99" y="-118.39" font-family="Times New Roman,serif" font-size="14.00">b</text>
</g>
<!-- Q3 -->
<g id="node4" class="node">
<title>Q3</title>
<ellipse fill="none" stroke="black" cx="205.61" cy="-52.94" rx="22.12" ry="22.12"/>
<text text-anchor="middle" x="205.61" y="-47.51" font-family="Times New Roman,serif" font-size="14.00">Q3</text>
</g>
<!-- Q1&#45;&gt;Q3 -->
<g id="edge3" class="edge">
<title>Q1&#45;&gt;Q3</title>
<path fill="none" stroke="black" d="M134.99,-114.64C147.61,-103.46 165.37,-87.72 179.79,-74.94"/>
<polygon fill="black" stroke="black" points="181.97,-77.68 187.13,-68.43 177.33,-72.45 181.97,-77.68"/>
<text text-anchor="middle" x="161.74" y="-95.39" font-family="Times New Roman,serif" font-size="14.00">a</text>
</g>
<!-- Q1&#45;&gt;Q4 -->
<g id="edge9" class="edge">
<title>Q1&#45;&gt;Q4</title>
<path fill="none" stroke="black" d="M140.39,-128.07C170.09,-126.86 223.87,-124.68 258.64,-123.28"/>
<polygon fill="black" stroke="black" points="258.72,-126.78 268.57,-122.87 258.43,-119.78 258.72,-126.78"/>
<text text-anchor="middle" x="205.61" y="-128.39" font-family="Times New Roman,serif" font-size="14.00">c</text>
</g>
<!-- Q2&#45;&gt;Q0 -->
<g id="edge5" class="edge">
<title>Q2&#45;&gt;Q0</title>
<path fill="none" stroke="black" d="M95.6,-48.82C87.15,-50.36 77.69,-53.15 70.24,-58.19 59.86,-65.22 51.15,-75.65 44.34,-85.89"/>
<polygon fill="black" stroke="black" points="41.46,-83.89 39.2,-94.24 47.42,-87.56 41.46,-83.89"/>
<text text-anchor="middle" x="73.99" y="-60.39" font-family="Times New Roman,serif" font-size="14.00">a</text>
</g>
<!-- Q2&#45;&gt;Q3 -->
<g id="edge6" class="edge">
<title>Q2&#45;&gt;Q3</title>
<path fill="none" stroke="black" d="M140.06,-48.42C149.57,-49.09 161.02,-49.89 171.61,-50.63"/>
<polygon fill="black" stroke="black" points="171.33,-54.12 181.55,-51.33 171.82,-47.14 171.33,-54.12"/>
<text text-anchor="middle" x="161.74" y="-53.39" font-family="Times New Roman,serif" font-size="14.00">b</text>
</g>
<!-- Q2&#45;&gt;Q4 -->
<g id="edge10" class="edge">
<title>Q2&#45;&gt;Q4</title>
<path fill="none" stroke="black" d="M134.78,-32.5C156.71,-14.46 196.97,11.97 227.73,-6.19 257.96,-24.03 274.87,-61.86 283.58,-89.44"/>
<polygon fill="black" stroke="black" points="280.13,-90.11 286.3,-98.72 286.85,-88.14 280.13,-90.11"/>
<text text-anchor="middle" x="205.61" y="-9.39" font-family="Times New Roman,serif" font-size="14.00">c</text>
</g>
<!-- Q3&#45;&gt;Q3 -->
<g id="edge7" class="edge">
<title>Q3&#45;&gt;Q3</title>
<path fill="none" stroke="black" d="M197.65,-73.99C196.67,-84.12 199.32,-93.06 205.61,-93.06 209.34,-93.06 211.79,-89.91 212.96,-85.23"/>
<polygon fill="black" stroke="black" points="216.45,-85.68 213.49,-75.51 209.46,-85.3 216.45,-85.68"/>
<text text-anchor="middle" x="205.61" y="-95.51" font-family="Times New Roman,serif" font-size="14.00">a,b</text>
</g>
<!-- Q3&#45;&gt;Q4 -->
<g id="edge11" class="edge">
<title>Q3&#45;&gt;Q4</title>
<path fill="none" stroke="black" d="M223.4,-66.57C235.63,-76.49 252.39,-90.11 266.24,-101.35"/>
<polygon fill="black" stroke="black" points="263.7,-103.8 273.67,-107.38 268.11,-98.36 263.7,-103.8"/>
<text text-anchor="middle" x="249.11" y="-91.39" font-family="Times New Roman,serif" font-size="14.00">c</text>
</g>
<!-- Q4&#45;&gt;Q4 -->
<g id="edge12" class="edge">
<title>Q4&#45;&gt;Q4</title>
<path fill="none" stroke="black" d="M284.65,-142.99C283.67,-153.12 286.32,-162.06 292.6,-162.06 296.34,-162.06 298.79,-158.91 299.96,-154.23"/>
<polygon fill="black" stroke="black" points="303.44,-154.68 300.48,-144.51 296.45,-154.3 303.44,-154.68"/>
<text text-anchor="middle" x="292.6" y="-164.51" font-family="Times New Roman,serif" font-size="14.00">a,b,c</text>
</g>
</g>
</svg>
