<?xml version="1.0" encoding="UTF-8" standalone="no"?>
<!DOCTYPE svg PUBLIC "-//W3C//DTD SVG 1.1//EN"
 "http://www.w3.org/Graphics/SVG/1.1/DTD/svg11.dtd">
<!-- Generated by graphviz version 9.0.0 (20230911.1827)
 -->
<!-- Title: DFA1 Pages: 1 -->
<svg width="424pt" height="134pt"
 viewBox="0.00 0.00 424.22 133.99" xmlns="http://www.w3.org/2000/svg" xmlns:xlink="http://www.w3.org/1999/xlink">
<g id="graph0" class="graph" transform="scale(1 1) rotate(0) translate(4 129.99)">
<title>DFA1</title>
<polygon fill="white" stroke="none" points="-4,4 -4,-129.99 420.22,-129.99 420.22,4 -4,4"/>
<!-- Q1 -->
<g id="node1" class="node">
<title>Q1</title>
<ellipse fill="none" stroke="black" cx="112.37" cy="-66.12" rx="22.12" ry="22.12"/>
<ellipse fill="none" stroke="black" cx="112.37" cy="-66.12" rx="26.12" ry="26.12"/>
<text text-anchor="middle" x="112.37" y="-60.7" font-family="Times New Roman,serif" font-size="14.00">Q1</text>
</g>
<!-- Q1&#45;&gt;Q1 -->
<g id="edge3" class="edge">
<title>Q1&#45;&gt;Q1</title>
<path fill="none" stroke="black" d="M103.61,-91.07C103,-101.45 105.92,-110.24 112.37,-110.24 116.19,-110.24 118.77,-107.14 120.12,-102.45"/>
<polygon fill="black" stroke="black" points="123.59,-102.85 120.99,-92.58 116.62,-102.23 123.59,-102.85"/>
<text text-anchor="middle" x="112.37" y="-112.69" font-family="Times New Roman,serif" font-size="14.00">a</text>
</g>
<!-- Q2 -->
<g id="node2" class="node">
<title>Q2</title>
<ellipse fill="none" stroke="black" cx="208.11" cy="-39.12" rx="22.12" ry="22.12"/>
<ellipse fill="none" stroke="black" cx="208.11" cy="-39.12" rx="26.12" ry="26.12"/>
<text text-anchor="middle" x="208.11" y="-33.7" font-family="Times New Roman,serif" font-size="14.00">Q2</text>
</g>
<!-- Q1&#45;&gt;Q2 -->
<g id="edge4" class="edge">
<title>Q1&#45;&gt;Q2</title>
<path fill="none" stroke="black" d="M138.56,-62.07C146.75,-60.51 155.82,-58.52 163.99,-56.12 166.93,-55.26 169.95,-54.28 172.96,-53.23"/>
<polygon fill="black" stroke="black" points="174.08,-56.55 182.24,-49.78 171.64,-49.99 174.08,-56.55"/>
<text text-anchor="middle" x="160.24" y="-59.57" font-family="Times New Roman,serif" font-size="14.00">b</text>
</g>
<!-- Q2&#45;&gt;Q1 -->
<g id="edge5" class="edge">
<title>Q2&#45;&gt;Q1</title>
<path fill="none" stroke="black" d="M181.96,-34.3C173.69,-33.62 164.56,-33.86 156.49,-36.37 151.57,-37.9 146.71,-40.22 142.14,-42.89"/>
<polygon fill="black" stroke="black" points="140.33,-39.88 133.91,-48.31 144.18,-45.73 140.33,-39.88"/>
<text text-anchor="middle" x="160.24" y="-38.57" font-family="Times New Roman,serif" font-size="14.00">a</text>
</g>
<!-- Q3 -->
<g id="node3" class="node">
<title>Q3</title>
<ellipse fill="none" stroke="black" cx="303.85" cy="-39.12" rx="22.12" ry="22.12"/>
<ellipse fill="none" stroke="black" cx="303.85" cy="-39.12" rx="26.12" ry="26.12"/>
<text text-anchor="middle" x="303.85" y="-33.7" font-family="Times New Roman,serif" font-size="14.00">Q3</text>
</g>
<!-- Q2&#45;&gt;Q3 -->
<g id="edge6" class="edge">
<title>Q2&#45;&gt;Q3</title>
<path fill="none" stroke="black" d="M234.73,-39.12C244.34,-39.12 255.46,-39.12 265.9,-39.12"/>
<polygon fill="black" stroke="black" points="265.76,-42.62 275.76,-39.12 265.76,-35.62 265.76,-42.62"/>
<text text-anchor="middle" x="255.98" y="-41.57" font-family="Times New Roman,serif" font-size="14.00">b</text>
</g>
<!-- Q3&#45;&gt;Q3 -->
<g id="edge8" class="edge">
<title>Q3&#45;&gt;Q3</title>
<path fill="none" stroke="black" d="M295.1,-64.07C294.49,-74.45 297.41,-83.24 303.85,-83.24 307.68,-83.24 310.26,-80.14 311.6,-75.45"/>
<polygon fill="black" stroke="black" points="315.08,-75.85 312.48,-65.58 308.11,-75.23 315.08,-75.85"/>
<text text-anchor="middle" x="303.85" y="-85.69" font-family="Times New Roman,serif" font-size="14.00">b</text>
</g>
<!-- Q4 -->
<g id="node5" class="node">
<title>Q4</title>
<ellipse fill="none" stroke="black" cx="394.1" cy="-39.12" rx="22.12" ry="22.12"/>
<text text-anchor="middle" x="394.1" y="-33.7" font-family="Times New Roman,serif" font-size="14.00">Q4</text>
</g>
<!-- Q3&#45;&gt;Q4 -->
<g id="edge7" class="edge">
<title>Q3&#45;&gt;Q4</title>
<path fill="none" stroke="black" d="M330.38,-39.12C339.64,-39.12 350.25,-39.12 360.07,-39.12"/>
<polygon fill="black" stroke="black" points="360,-42.62 370,-39.12 360,-35.62 360,-42.62"/>
<text text-anchor="middle" x="350.98" y="-41.57" font-family="Times New Roman,serif" font-size="14.00">a</text>
</g>
<!-- Q0 -->
<g id="node4" class="node">
<title>Q0</title>
<ellipse fill="none" stroke="black" cx="22.12" cy="-22.12" rx="22.12" ry="22.12"/>
<text text-anchor="middle" x="22.12" y="-16.7" font-family="Times New Roman,serif" font-size="14.00">Q0</text>
</g>
<!-- Q0&#45;&gt;Q1 -->
<g id="edge1" class="edge">
<title>Q0&#45;&gt;Q1</title>
<path fill="none" stroke="black" d="M42.27,-31.67C52.78,-36.91 66.1,-43.55 78.24,-49.6"/>
<polygon fill="black" stroke="black" points="76.64,-52.72 87.15,-54.05 79.76,-46.45 76.64,-52.72"/>
<text text-anchor="middle" x="65.24" y="-46.57" font-family="Times New Roman,serif" font-size="14.00">a</text>
</g>
<!-- Q0&#45;&gt;Q2 -->
<g id="edge2" class="edge">
<title>Q0&#45;&gt;Q2</title>
<path fill="none" stroke="black" d="M44.12,-18.09C67.35,-14.27 105.84,-9.88 138.49,-15.37 150.02,-17.31 162.21,-20.96 173.06,-24.83"/>
<polygon fill="black" stroke="black" points="171.79,-28.1 182.39,-28.35 174.26,-21.55 171.79,-28.1"/>
<text text-anchor="middle" x="112.37" y="-18.57" font-family="Times New Roman,serif" font-size="14.00">b</text>
</g>
<!-- Q4&#45;&gt;Q4 -->
<g id="edge9" class="edge">
<title>Q4&#45;&gt;Q4</title>
<path fill="none" stroke="black" d="M386.21,-60.18C385.24,-70.3 387.87,-79.24 394.1,-79.24 397.8,-79.24 400.23,-76.09 401.39,-71.41"/>
<polygon fill="black" stroke="black" points="404.87,-71.86 401.91,-61.69 397.88,-71.49 404.87,-71.86"/>
<text text-anchor="middle" x="394.1" y="-81.69" font-family="Times New Roman,serif" font-size="14.00">a,b</text>
</g>
</g>
</svg>
