<?xml version="1.0" encoding="UTF-8" standalone="no"?>
<!DOCTYPE svg PUBLIC "-//W3C//DTD SVG 1.1//EN"
 "http://www.w3.org/Graphics/SVG/1.1/DTD/svg11.dtd">
<!-- Generated by graphviz version 9.0.0 (20230911.1827)
 -->
<!-- Title: DFA2 Pages: 1 -->
<svg width="236pt" height="116pt"
 viewBox="0.00 0.00 235.73 115.99" xmlns="http://www.w3.org/2000/svg" xmlns:xlink="http://www.w3.org/1999/xlink">
<g id="graph0" class="graph" transform="scale(1 1) rotate(0) translate(4 111.99)">
<title>DFA2</title>
<polygon fill="white" stroke="none" points="-4,4 -4,-111.99 231.73,-111.99 231.73,4 -4,4"/>
<!-- Q0 -->
<g id="node1" class="node">
<title>Q0</title>
<ellipse fill="none" stroke="black" cx="26.12" cy="-53.12" rx="22.12" ry="22.12"/>
<ellipse fill="none" stroke="black" cx="26.12" cy="-53.12" rx="26.12" ry="26.12"/>
<text text-anchor="middle" x="26.12" y="-47.7" font-family="Times New Roman,serif" font-size="14.00">Q0</text>
</g>
<!-- Q1 -->
<g id="node2" class="node">
<title>Q1</title>
<ellipse fill="none" stroke="black" cx="117.87" cy="-84.12" rx="22.12" ry="22.12"/>
<text text-anchor="middle" x="117.87" y="-78.7" font-family="Times New Roman,serif" font-size="14.00">Q1</text>
</g>
<!-- Q0&#45;&gt;Q1 -->
<g id="edge1" class="edge">
<title>Q0&#45;&gt;Q1</title>
<path fill="none" stroke="black" d="M44.09,-72.61C51.36,-79.52 60.44,-86.49 70.24,-90.12 75.02,-91.89 80.24,-92.44 85.41,-92.26"/>
<polygon fill="black" stroke="black" points="85.43,-95.78 94.92,-91.07 84.57,-88.84 85.43,-95.78"/>
<text text-anchor="middle" x="73.99" y="-93.57" font-family="Times New Roman,serif" font-size="14.00">a</text>
</g>
<!-- Q2 -->
<g id="node3" class="node">
<title>Q2</title>
<ellipse fill="none" stroke="black" cx="117.87" cy="-22.12" rx="22.12" ry="22.12"/>
<text text-anchor="middle" x="117.87" y="-16.7" font-family="Times New Roman,serif" font-size="14.00">Q2</text>
</g>
<!-- Q0&#45;&gt;Q2 -->
<g id="edge2" class="edge">
<title>Q0&#45;&gt;Q2</title>
<path fill="none" stroke="black" d="M50.66,-42.87C56.97,-40.28 63.82,-37.6 70.24,-35.37 75.12,-33.68 80.33,-32.04 85.44,-30.53"/>
<polygon fill="black" stroke="black" points="86.17,-33.96 94.83,-27.84 84.25,-27.22 86.17,-33.96"/>
<text text-anchor="middle" x="73.99" y="-37.57" font-family="Times New Roman,serif" font-size="14.00">b</text>
</g>
<!-- Q1&#45;&gt;Q0 -->
<g id="edge4" class="edge">
<title>Q1&#45;&gt;Q0</title>
<path fill="none" stroke="black" d="M96.57,-76.95C90.52,-74.82 83.87,-72.49 77.74,-70.37 72.64,-68.61 67.24,-66.75 61.94,-64.94"/>
<polygon fill="black" stroke="black" points="63.37,-61.73 52.77,-61.81 61.11,-68.35 63.37,-61.73"/>
<text text-anchor="middle" x="73.99" y="-72.57" font-family="Times New Roman,serif" font-size="14.00">b</text>
</g>
<!-- Q3 -->
<g id="node4" class="node">
<title>Q3</title>
<ellipse fill="none" stroke="black" cx="205.61" cy="-52.12" rx="22.12" ry="22.12"/>
<text text-anchor="middle" x="205.61" y="-46.7" font-family="Times New Roman,serif" font-size="14.00">Q3</text>
</g>
<!-- Q1&#45;&gt;Q3 -->
<g id="edge3" class="edge">
<title>Q1&#45;&gt;Q3</title>
<path fill="none" stroke="black" d="M138.75,-76.7C149.18,-72.81 162.17,-67.96 173.86,-63.6"/>
<polygon fill="black" stroke="black" points="174.97,-66.92 183.12,-60.14 172.52,-60.36 174.97,-66.92"/>
<text text-anchor="middle" x="161.74" y="-70.57" font-family="Times New Roman,serif" font-size="14.00">a</text>
</g>
<!-- Q2&#45;&gt;Q0 -->
<g id="edge5" class="edge">
<title>Q2&#45;&gt;Q0</title>
<path fill="none" stroke="black" d="M97.36,-13.75C88.83,-11.27 78.84,-10.02 70.24,-13.37 63.4,-16.05 56.98,-20.37 51.3,-25.21"/>
<polygon fill="black" stroke="black" points="48.97,-22.6 44.12,-32.02 53.78,-27.68 48.97,-22.6"/>
<text text-anchor="middle" x="73.99" y="-15.57" font-family="Times New Roman,serif" font-size="14.00">a</text>
</g>
<!-- Q2&#45;&gt;Q3 -->
<g id="edge6" class="edge">
<title>Q2&#45;&gt;Q3</title>
<path fill="none" stroke="black" d="M139.19,-29.23C149.54,-32.86 162.36,-37.34 173.89,-41.37"/>
<polygon fill="black" stroke="black" points="172.41,-44.56 183.01,-44.56 174.72,-37.96 172.41,-44.56"/>
<text text-anchor="middle" x="161.74" y="-39.57" font-family="Times New Roman,serif" font-size="14.00">b</text>
</g>
<!-- Q3&#45;&gt;Q3 -->
<g id="edge7" class="edge">
<title>Q3&#45;&gt;Q3</title>
<path fill="none" stroke="black" d="M197.59,-73.18C196.59,-83.3 199.27,-92.24 205.61,-92.24 209.38,-92.24 211.85,-89.09 213.03,-84.41"/>
<polygon fill="black" stroke="black" points="216.51,-84.86 213.55,-74.69 209.52,-84.48 216.51,-84.86"/>
<text text-anchor="middle" x="205.61" y="-94.69" font-family="Times New Roman,serif" font-size="14.00">a,b</text>
</g>
</g>
</svg>
