<?xml version="1.0" encoding="UTF-8" standalone="no"?>
<!DOCTYPE svg PUBLIC "-//W3C//DTD SVG 1.1//EN"
 "http://www.w3.org/Graphics/SVG/1.1/DTD/svg11.dtd">
<!-- Generated by graphviz version 9.0.0 (20230911.1827)
 -->
<!-- Title: DFA9 Pages: 1 -->
<svg width="349pt" height="167pt"
 viewBox="0.00 0.00 348.73 167.38" xmlns="http://www.w3.org/2000/svg" xmlns:xlink="http://www.w3.org/1999/xlink">
<g id="graph0" class="graph" transform="scale(1 1) rotate(0) translate(4 163.38)">
<title>DFA9</title>
<polygon fill="white" stroke="none" points="-4,4 -4,-163.38 344.73,-163.38 344.73,4 -4,4"/>
<!-- Q1 -->
<g id="node1" class="node">
<title>Q1</title>
<ellipse fill="none" stroke="black" cx="26.12" cy="-44.63" rx="22.12" ry="22.12"/>
<ellipse fill="none" stroke="black" cx="26.12" cy="-44.63" rx="26.12" ry="26.12"/>
<text text-anchor="middle" x="26.12" y="-39.2" font-family="Times New Roman,serif" font-size="14.00">Q1</text>
</g>
<!-- Q0 -->
<g id="node3" class="node">
<title>Q0</title>
<ellipse fill="none" stroke="black" cx="318.6" cy="-49.63" rx="22.12" ry="22.12"/>
<text text-anchor="middle" x="318.6" y="-44.2" font-family="Times New Roman,serif" font-size="14.00">Q0</text>
</g>
<!-- Q1&#45;&gt;Q0 -->
<g id="edge4" class="edge">
<title>Q1&#45;&gt;Q0</title>
<path fill="none" stroke="black" d="M38.76,-67.62C51.62,-90.21 74.67,-123.3 105.49,-137.63 172.88,-168.97 254.59,-108.01 294.04,-72.55"/>
<polygon fill="black" stroke="black" points="296.14,-75.37 301.13,-66.02 291.4,-70.23 296.14,-75.37"/>
<text text-anchor="middle" x="175.99" y="-146.08" font-family="Times New Roman,serif" font-size="14.00">c</text>
</g>
<!-- Q2 -->
<g id="node4" class="node">
<title>Q2</title>
<ellipse fill="none" stroke="black" cx="127.62" cy="-72.63" rx="22.12" ry="22.12"/>
<text text-anchor="middle" x="127.62" y="-67.2" font-family="Times New Roman,serif" font-size="14.00">Q2</text>
</g>
<!-- Q1&#45;&gt;Q2 -->
<g id="edge3" class="edge">
<title>Q1&#45;&gt;Q2</title>
<path fill="none" stroke="black" d="M51.72,-51.55C64.88,-55.26 81.24,-59.86 95.31,-63.82"/>
<polygon fill="black" stroke="black" points="93.96,-67.08 104.54,-66.42 95.86,-60.34 93.96,-67.08"/>
<text text-anchor="middle" x="78.87" y="-63.08" font-family="Times New Roman,serif" font-size="14.00">a,b</text>
</g>
<!-- Q3 -->
<g id="node2" class="node">
<title>Q3</title>
<ellipse fill="none" stroke="black" cx="228.36" cy="-49.63" rx="22.12" ry="22.12"/>
<ellipse fill="none" stroke="black" cx="228.36" cy="-49.63" rx="26.12" ry="26.12"/>
<text text-anchor="middle" x="228.36" y="-44.2" font-family="Times New Roman,serif" font-size="14.00">Q3</text>
</g>
<!-- Q3&#45;&gt;Q1 -->
<g id="edge9" class="edge">
<title>Q3&#45;&gt;Q1</title>
<path fill="none" stroke="black" d="M203.66,-40.37C188.5,-34.95 168.28,-28.65 149.74,-25.88 120.14,-21.45 86.53,-27.36 62,-33.68"/>
<polygon fill="black" stroke="black" points="61.26,-30.26 52.54,-36.28 63.11,-37.01 61.26,-30.26"/>
<text text-anchor="middle" x="127.62" y="-29.08" font-family="Times New Roman,serif" font-size="14.00">c</text>
</g>
<!-- Q3&#45;&gt;Q0 -->
<g id="edge7" class="edge">
<title>Q3&#45;&gt;Q0</title>
<path fill="none" stroke="black" d="M254.88,-49.63C264.15,-49.63 274.75,-49.63 284.57,-49.63"/>
<polygon fill="black" stroke="black" points="284.5,-53.13 294.5,-49.63 284.5,-46.13 284.5,-53.13"/>
<text text-anchor="middle" x="275.48" y="-52.08" font-family="Times New Roman,serif" font-size="14.00">a</text>
</g>
<!-- Q3&#45;&gt;Q2 -->
<g id="edge8" class="edge">
<title>Q3&#45;&gt;Q2</title>
<path fill="none" stroke="black" d="M202.25,-44.81C191.43,-43.66 178.76,-43.58 167.74,-46.88 163.18,-48.24 158.66,-50.33 154.41,-52.74"/>
<polygon fill="black" stroke="black" points="152.85,-49.58 146.32,-57.93 156.63,-55.47 152.85,-49.58"/>
<text text-anchor="middle" x="175.99" y="-49.08" font-family="Times New Roman,serif" font-size="14.00">b</text>
</g>
<!-- Q0&#45;&gt;Q1 -->
<g id="edge2" class="edge">
<title>Q0&#45;&gt;Q1</title>
<path fill="none" stroke="black" d="M300.02,-37.2C287.84,-29.28 270.91,-19.6 254.48,-14.63 176.02,9.13 148.52,0.73 70.24,-23.63 66.75,-24.72 63.18,-26.05 59.66,-27.52"/>
<polygon fill="black" stroke="black" points="58.45,-24.22 50.8,-31.55 61.35,-30.59 58.45,-24.22"/>
<text text-anchor="middle" x="175.99" y="-4.08" font-family="Times New Roman,serif" font-size="14.00">c</text>
</g>
<!-- Q0&#45;&gt;Q0 -->
<g id="edge1" class="edge">
<title>Q0&#45;&gt;Q0</title>
<path fill="none" stroke="black" d="M310.72,-70.68C309.74,-80.81 312.37,-89.75 318.6,-89.75 322.31,-89.75 324.74,-86.6 325.9,-81.92"/>
<polygon fill="black" stroke="black" points="329.38,-82.37 326.41,-72.2 322.39,-82 329.38,-82.37"/>
<text text-anchor="middle" x="318.6" y="-92.2" font-family="Times New Roman,serif" font-size="14.00">a,b</text>
</g>
<!-- Q2&#45;&gt;Q3 -->
<g id="edge5" class="edge">
<title>Q2&#45;&gt;Q3</title>
<path fill="none" stroke="black" d="M149.98,-71.67C160.42,-70.86 173.11,-69.37 184.24,-66.63 187.21,-65.9 190.26,-65.01 193.28,-64.02"/>
<polygon fill="black" stroke="black" points="194.37,-67.35 202.59,-60.66 191.99,-60.77 194.37,-67.35"/>
<text text-anchor="middle" x="175.99" y="-71.08" font-family="Times New Roman,serif" font-size="14.00">a,c</text>
</g>
<!-- Q2&#45;&gt;Q2 -->
<g id="edge6" class="edge">
<title>Q2&#45;&gt;Q2</title>
<path fill="none" stroke="black" d="M118.81,-93.27C117.6,-103.57 120.53,-112.75 127.62,-112.75 131.82,-112.75 134.57,-109.51 135.85,-104.73"/>
<polygon fill="black" stroke="black" points="139.34,-104.95 136.34,-94.78 132.35,-104.6 139.34,-104.95"/>
<text text-anchor="middle" x="127.62" y="-115.2" font-family="Times New Roman,serif" font-size="14.00">b</text>
</g>
</g>
</svg>
