<?xml version="1.0" encoding="UTF-8" standalone="no"?>
<!DOCTYPE svg PUBLIC "-//W3C//DTD SVG 1.1//EN"
 "http://www.w3.org/Graphics/SVG/1.1/DTD/svg11.dtd">
<!-- Generated by graphviz version 9.0.0 (20230911.1827)
 -->
<!-- Title: enfa1 Pages: 1 -->
<svg width="304pt" height="110pt"
 viewBox="0.00 0.00 303.76 109.88" xmlns="http://www.w3.org/2000/svg" xmlns:xlink="http://www.w3.org/1999/xlink">
<g id="graph0" class="graph" transform="scale(1 1) rotate(0) translate(4 105.88)">
<title>enfa1</title>
<polygon fill="white" stroke="none" points="-4,4 -4,-105.88 299.76,-105.88 299.76,4 -4,4"/>
<!-- q1 -->
<g id="node1" class="node">
<title>q1</title>
<ellipse fill="none" stroke="black" cx="271.63" cy="-74.13" rx="20.13" ry="20.13"/>
<ellipse fill="none" stroke="black" cx="271.63" cy="-74.13" rx="24.13" ry="24.13"/>
<text text-anchor="middle" x="271.63" y="-68.7" font-family="Times New Roman,serif" font-size="14.00">q1</text>
</g>
<!-- q0 -->
<g id="node2" class="node">
<title>q0</title>
<ellipse fill="none" stroke="black" cx="20.13" cy="-78.13" rx="20.13" ry="20.13"/>
<text text-anchor="middle" x="20.13" y="-72.7" font-family="Times New Roman,serif" font-size="14.00">q0</text>
</g>
<!-- q0&#45;&gt;q1 -->
<g id="edge5" class="edge">
<title>q0&#45;&gt;q1</title>
<path fill="none" stroke="black" d="M40.35,-81.21C46.09,-82 52.41,-82.73 58.25,-83.13 123.55,-87.5 140.21,-87.62 205.51,-83.13 215.57,-82.43 226.45,-81.15 236.39,-79.76"/>
<polygon fill="black" stroke="black" points="236.63,-83.26 246.01,-78.33 235.6,-76.34 236.63,-83.26"/>
<text text-anchor="middle" x="143.88" y="-88.58" font-family="Times New Roman,serif" font-size="14.00">c</text>
</g>
<!-- q2 -->
<g id="node3" class="node">
<title>q2</title>
<ellipse fill="none" stroke="black" cx="102.38" cy="-46.13" rx="20.13" ry="20.13"/>
<text text-anchor="middle" x="102.38" y="-40.7" font-family="Times New Roman,serif" font-size="14.00">q2</text>
</g>
<!-- q0&#45;&gt;q2 -->
<g id="edge1" class="edge">
<title>q0&#45;&gt;q2</title>
<path fill="none" stroke="black" d="M39.34,-70.86C49.19,-66.94 61.58,-62 72.69,-57.56"/>
<polygon fill="black" stroke="black" points="73.84,-60.87 81.83,-53.92 71.25,-54.37 73.84,-60.87"/>
<text text-anchor="middle" x="61.25" y="-65.58" font-family="Times New Roman,serif" font-size="14.00">a</text>
</g>
<!-- q3 -->
<g id="node4" class="node">
<title>q3</title>
<ellipse fill="none" stroke="black" cx="185.38" cy="-20.13" rx="20.13" ry="20.13"/>
<text text-anchor="middle" x="185.38" y="-14.7" font-family="Times New Roman,serif" font-size="14.00">q3</text>
</g>
<!-- q2&#45;&gt;q3 -->
<g id="edge2" class="edge">
<title>q2&#45;&gt;q3</title>
<path fill="none" stroke="black" d="M121.76,-40.23C131.53,-37.09 143.78,-33.16 154.84,-29.61"/>
<polygon fill="black" stroke="black" points="155.9,-32.94 164.35,-26.56 153.76,-26.28 155.9,-32.94"/>
<text text-anchor="middle" x="143.88" y="-36.58" font-family="Times New Roman,serif" font-size="14.00">ε</text>
</g>
<!-- q3&#45;&gt;q1 -->
<g id="edge3" class="edge">
<title>q3&#45;&gt;q1</title>
<path fill="none" stroke="black" d="M203.03,-30.79C213.96,-37.8 228.55,-47.15 241.38,-55.38"/>
<polygon fill="black" stroke="black" points="239.18,-58.12 249.49,-60.57 242.96,-52.23 239.18,-58.12"/>
<text text-anchor="middle" x="226.51" y="-49.58" font-family="Times New Roman,serif" font-size="14.00">ε</text>
</g>
<!-- q3&#45;&gt;q3 -->
<g id="edge4" class="edge">
<title>q3&#45;&gt;q3</title>
<path fill="none" stroke="black" d="M177.94,-39.35C176.8,-49.29 179.28,-58.25 185.38,-58.25 188.91,-58.25 191.23,-55.26 192.33,-50.81"/>
<polygon fill="black" stroke="black" points="195.83,-51 192.76,-40.86 188.84,-50.71 195.83,-51"/>
<text text-anchor="middle" x="185.38" y="-60.7" font-family="Times New Roman,serif" font-size="14.00">c,b</text>
</g>
</g>
</svg>
