<?xml version="1.0" encoding="UTF-8" standalone="no"?>
<!DOCTYPE svg PUBLIC "-//W3C//DTD SVG 1.1//EN"
 "http://www.w3.org/Graphics/SVG/1.1/DTD/svg11.dtd">
<!-- Generated by graphviz version 9.0.0 (20230911.1827)
 -->
<!-- Title: enfa1 Pages: 1 -->
<svg width="224pt" height="111pt"
 viewBox="0.00 0.00 223.76 110.88" xmlns="http://www.w3.org/2000/svg" xmlns:xlink="http://www.w3.org/1999/xlink">
<g id="graph0" class="graph" transform="scale(1 1) rotate(0) translate(4 106.88)">
<title>enfa1</title>
<polygon fill="white" stroke="none" points="-4,4 -4,-106.88 219.76,-106.88 219.76,4 -4,4"/>
<!-- q0 -->
<g id="node1" class="node">
<title>q0</title>
<ellipse fill="none" stroke="black" cx="24.13" cy="-49.13" rx="20.13" ry="20.13"/>
<ellipse fill="none" stroke="black" cx="24.13" cy="-49.13" rx="24.13" ry="24.13"/>
<text text-anchor="middle" x="24.13" y="-43.7" font-family="Times New Roman,serif" font-size="14.00">q0</text>
</g>
<!-- q1 -->
<g id="node2" class="node">
<title>q1</title>
<ellipse fill="none" stroke="black" cx="111.88" cy="-78.13" rx="20.13" ry="20.13"/>
<text text-anchor="middle" x="111.88" y="-72.7" font-family="Times New Roman,serif" font-size="14.00">q1</text>
</g>
<!-- q0&#45;&gt;q1 -->
<g id="edge1" class="edge">
<title>q0&#45;&gt;q1</title>
<path fill="none" stroke="black" d="M39.99,-67.42C47.08,-74.71 56.21,-82.27 66.25,-86.13 71.18,-88.02 76.59,-88.37 81.89,-87.86"/>
<polygon fill="black" stroke="black" points="82.48,-91.31 91.6,-85.92 81.11,-84.44 82.48,-91.31"/>
<text text-anchor="middle" x="70" y="-89.58" font-family="Times New Roman,serif" font-size="14.00">a</text>
</g>
<!-- q2 -->
<g id="node3" class="node">
<title>q2</title>
<ellipse fill="none" stroke="black" cx="111.88" cy="-20.13" rx="20.13" ry="20.13"/>
<text text-anchor="middle" x="111.88" y="-14.7" font-family="Times New Roman,serif" font-size="14.00">q2</text>
</g>
<!-- q0&#45;&gt;q2 -->
<g id="edge2" class="edge">
<title>q0&#45;&gt;q2</title>
<path fill="none" stroke="black" d="M46.22,-39.25C52.57,-36.49 59.62,-33.63 66.25,-31.38 70.93,-29.79 75.96,-28.31 80.89,-26.98"/>
<polygon fill="black" stroke="black" points="81.7,-30.39 90.54,-24.54 79.99,-23.6 81.7,-30.39"/>
<text text-anchor="middle" x="70" y="-33.58" font-family="Times New Roman,serif" font-size="14.00">b</text>
</g>
<!-- q1&#45;&gt;q0 -->
<g id="edge4" class="edge">
<title>q1&#45;&gt;q0</title>
<path fill="none" stroke="black" d="M92.35,-71.86C82.31,-68.46 69.6,-64.17 57.94,-60.22"/>
<polygon fill="black" stroke="black" points="59.24,-56.97 48.64,-57.08 56.99,-63.6 59.24,-56.97"/>
<text text-anchor="middle" x="70" y="-67.58" font-family="Times New Roman,serif" font-size="14.00">b</text>
</g>
<!-- q3 -->
<g id="node4" class="node">
<title>q3</title>
<ellipse fill="none" stroke="black" cx="195.63" cy="-48.13" rx="20.13" ry="20.13"/>
<text text-anchor="middle" x="195.63" y="-42.7" font-family="Times New Roman,serif" font-size="14.00">q3</text>
</g>
<!-- q1&#45;&gt;q3 -->
<g id="edge3" class="edge">
<title>q1&#45;&gt;q3</title>
<path fill="none" stroke="black" d="M131.02,-71.47C141.22,-67.73 154.18,-62.97 165.74,-58.73"/>
<polygon fill="black" stroke="black" points="166.65,-62.12 174.83,-55.39 164.24,-55.55 166.65,-62.12"/>
<text text-anchor="middle" x="153.75" y="-65.58" font-family="Times New Roman,serif" font-size="14.00">a</text>
</g>
<!-- q2&#45;&gt;q0 -->
<g id="edge5" class="edge">
<title>q2&#45;&gt;q0</title>
<path fill="none" stroke="black" d="M94,-10.6C85.5,-7.07 75.14,-4.72 66.25,-8.38 59.01,-11.36 52.36,-16.3 46.62,-21.73"/>
<polygon fill="black" stroke="black" points="44.28,-19.11 39.94,-28.78 49.36,-23.93 44.28,-19.11"/>
<text text-anchor="middle" x="70" y="-11.58" font-family="Times New Roman,serif" font-size="14.00">a</text>
</g>
<!-- q2&#45;&gt;q3 -->
<g id="edge6" class="edge">
<title>q2&#45;&gt;q3</title>
<path fill="none" stroke="black" d="M131.12,-26.35C139.2,-29.11 148.83,-32.4 157.5,-35.38 160.06,-36.25 162.72,-37.16 165.38,-38.08"/>
<polygon fill="black" stroke="black" points="164.1,-41.34 174.69,-41.27 166.37,-34.72 164.1,-41.34"/>
<text text-anchor="middle" x="153.75" y="-37.58" font-family="Times New Roman,serif" font-size="14.00">b</text>
</g>
<!-- q3&#45;&gt;q3 -->
<g id="edge7" class="edge">
<title>q3&#45;&gt;q3</title>
<path fill="none" stroke="black" d="M188.1,-66.96C186.82,-77.05 189.33,-86.25 195.63,-86.25 199.37,-86.25 201.77,-83.01 202.84,-78.26"/>
<polygon fill="black" stroke="black" points="206.33,-78.57 203.12,-68.47 199.34,-78.37 206.33,-78.57"/>
<text text-anchor="middle" x="195.63" y="-88.7" font-family="Times New Roman,serif" font-size="14.00">a,ε</text>
</g>
</g>
</svg>
