<?xml version="1.0" encoding="UTF-8" standalone="no"?>
<!DOCTYPE svg PUBLIC "-//W3C//DTD SVG 1.1//EN"
 "http://www.w3.org/Graphics/SVG/1.1/DTD/svg11.dtd">
<!-- Generated by graphviz version 9.0.0 (20230911.1827)
 -->
<!-- Title: enfa1 Pages: 1 -->
<svg width="140pt" height="156pt"
 viewBox="0.00 0.00 140.00 156.00" xmlns="http://www.w3.org/2000/svg" xmlns:xlink="http://www.w3.org/1999/xlink">
<g id="graph0" class="graph" transform="scale(1 1) rotate(0) translate(4 152)">
<title>enfa1</title>
<polygon fill="white" stroke="none" points="-4,4 -4,-152 136,-152 136,4 -4,4"/>
<!-- q2 -->
<g id="node1" class="node">
<title>q2</title>
<ellipse fill="none" stroke="black" cx="107.88" cy="-90.13" rx="20.13" ry="20.13"/>
<ellipse fill="none" stroke="black" cx="107.88" cy="-90.13" rx="24.13" ry="24.13"/>
<text text-anchor="middle" x="107.88" y="-84.7" font-family="Times New Roman,serif" font-size="14.00">q2</text>
</g>
<!-- q2&#45;&gt;q2 -->
<g id="edge5" class="edge">
<title>q2&#45;&gt;q2</title>
<path fill="none" stroke="black" d="M99.41,-113.09C98.6,-123.37 101.43,-132.25 107.88,-132.25 111.71,-132.25 114.26,-129.12 115.53,-124.42"/>
<polygon fill="black" stroke="black" points="119.01,-124.83 116.24,-114.6 112.03,-124.33 119.01,-124.83"/>
<text text-anchor="middle" x="107.88" y="-134.7" font-family="Times New Roman,serif" font-size="14.00">b</text>
</g>
<!-- q0 -->
<g id="node2" class="node">
<title>q0</title>
<ellipse fill="none" stroke="black" cx="20.13" cy="-51.13" rx="20.13" ry="20.13"/>
<text text-anchor="middle" x="20.13" y="-45.7" font-family="Times New Roman,serif" font-size="14.00">q0</text>
</g>
<!-- q0&#45;&gt;q2 -->
<g id="edge3" class="edge">
<title>q0&#45;&gt;q2</title>
<path fill="none" stroke="black" d="M38.89,-59.21C49.37,-63.97 62.92,-70.14 75.17,-75.71"/>
<polygon fill="black" stroke="black" points="73.56,-78.82 84.11,-79.77 76.46,-72.45 73.56,-78.82"/>
<text text-anchor="middle" x="62" y="-73.58" font-family="Times New Roman,serif" font-size="14.00">ε</text>
</g>
<!-- q0&#45;&gt;q0 -->
<g id="edge1" class="edge">
<title>q0&#45;&gt;q0</title>
<path fill="none" stroke="black" d="M12.6,-69.96C11.32,-80.05 13.83,-89.25 20.13,-89.25 23.87,-89.25 26.27,-86.01 27.34,-81.26"/>
<polygon fill="black" stroke="black" points="30.83,-81.57 27.61,-71.47 23.83,-81.37 30.83,-81.57"/>
<text text-anchor="middle" x="20.13" y="-91.7" font-family="Times New Roman,serif" font-size="14.00">a</text>
</g>
<!-- q1 -->
<g id="node3" class="node">
<title>q1</title>
<ellipse fill="none" stroke="black" cx="107.88" cy="-20.13" rx="20.13" ry="20.13"/>
<text text-anchor="middle" x="107.88" y="-14.7" font-family="Times New Roman,serif" font-size="14.00">q1</text>
</g>
<!-- q0&#45;&gt;q1 -->
<g id="edge2" class="edge">
<title>q0&#45;&gt;q1</title>
<path fill="none" stroke="black" d="M39.31,-44.55C50.49,-40.51 65.07,-35.24 77.82,-30.63"/>
<polygon fill="black" stroke="black" points="78.79,-34 87,-27.31 76.41,-27.42 78.79,-34"/>
<text text-anchor="middle" x="62" y="-40.58" font-family="Times New Roman,serif" font-size="14.00">b</text>
</g>
<!-- q1&#45;&gt;q0 -->
<g id="edge4" class="edge">
<title>q1&#45;&gt;q0</title>
<path fill="none" stroke="black" d="M88.29,-14.92C78.98,-13.23 67.7,-12.64 58.25,-16.38 51.94,-18.87 46.07,-23 40.95,-27.56"/>
<polygon fill="black" stroke="black" points="38.75,-24.8 34.15,-34.35 43.7,-29.75 38.75,-24.8"/>
<text text-anchor="middle" x="62" y="-19.58" font-family="Times New Roman,serif" font-size="14.00">a</text>
</g>
</g>
</svg>
