<?xml version="1.0" encoding="UTF-8" standalone="no"?>
<!DOCTYPE svg PUBLIC "-//W3C//DTD SVG 1.1//EN"
 "http://www.w3.org/Graphics/SVG/1.1/DTD/svg11.dtd">
<!-- Generated by graphviz version 9.0.0 (20230911.1827)
 -->
<!-- Title: EQUIVALENTDFA Pages: 1 -->
<svg width="419pt" height="158pt"
 viewBox="0.00 0.00 419.22 158.24" xmlns="http://www.w3.org/2000/svg" xmlns:xlink="http://www.w3.org/1999/xlink">
<g id="graph0" class="graph" transform="scale(1 1) rotate(0) translate(4 154.24)">
<title>EQUIVALENTDFA</title>
<polygon fill="white" stroke="none" points="-4,4 -4,-154.24 415.22,-154.24 415.22,4 -4,4"/>
<!-- Q0 -->
<g id="node1" class="node">
<title>Q0</title>
<ellipse fill="none" stroke="black" cx="26.12" cy="-55.12" rx="22.12" ry="22.12"/>
<ellipse fill="none" stroke="black" cx="26.12" cy="-55.12" rx="26.12" ry="26.12"/>
<text text-anchor="middle" x="26.12" y="-49.7" font-family="Times New Roman,serif" font-size="14.00">Q0</text>
</g>
<!-- Q1 -->
<g id="node3" class="node">
<title>Q1</title>
<ellipse fill="none" stroke="black" cx="117.87" cy="-94.12" rx="22.12" ry="22.12"/>
<text text-anchor="middle" x="117.87" y="-88.7" font-family="Times New Roman,serif" font-size="14.00">Q1</text>
</g>
<!-- Q0&#45;&gt;Q1 -->
<g id="edge1" class="edge">
<title>Q0&#45;&gt;Q1</title>
<path fill="none" stroke="black" d="M50.23,-65.17C61.37,-70 74.86,-75.87 86.78,-81.05"/>
<polygon fill="black" stroke="black" points="85.22,-84.19 95.79,-84.96 88.01,-77.77 85.22,-84.19"/>
<text text-anchor="middle" x="73.99" y="-79.57" font-family="Times New Roman,serif" font-size="14.00">a</text>
</g>
<!-- Q2 -->
<g id="node4" class="node">
<title>Q2</title>
<ellipse fill="none" stroke="black" cx="117.87" cy="-22.12" rx="22.12" ry="22.12"/>
<text text-anchor="middle" x="117.87" y="-16.7" font-family="Times New Roman,serif" font-size="14.00">Q2</text>
</g>
<!-- Q0&#45;&gt;Q2 -->
<g id="edge2" class="edge">
<title>Q0&#45;&gt;Q2</title>
<path fill="none" stroke="black" d="M51.17,-46.28C61.84,-42.36 74.53,-37.69 85.9,-33.51"/>
<polygon fill="black" stroke="black" points="87.1,-36.8 95.28,-30.06 84.69,-30.23 87.1,-36.8"/>
<text text-anchor="middle" x="73.99" y="-41.57" font-family="Times New Roman,serif" font-size="14.00">b</text>
</g>
<!-- Q4 -->
<g id="node2" class="node">
<title>Q4</title>
<ellipse fill="none" stroke="black" cx="209.61" cy="-124.12" rx="22.12" ry="22.12"/>
<ellipse fill="none" stroke="black" cx="209.61" cy="-124.12" rx="26.12" ry="26.12"/>
<text text-anchor="middle" x="209.61" y="-118.7" font-family="Times New Roman,serif" font-size="14.00">Q4</text>
</g>
<!-- Q4&#45;&gt;Q1 -->
<g id="edge8" class="edge">
<title>Q4&#45;&gt;Q1</title>
<path fill="none" stroke="black" d="M190.44,-106.15C183.27,-100.25 174.58,-94.43 165.49,-91.37 160.91,-89.83 155.93,-89.15 150.99,-89.03"/>
<polygon fill="black" stroke="black" points="151.07,-85.52 141.25,-89.5 151.41,-92.51 151.07,-85.52"/>
<text text-anchor="middle" x="161.74" y="-94.57" font-family="Times New Roman,serif" font-size="14.00">a</text>
</g>
<!-- Q5 -->
<g id="node6" class="node">
<title>Q5</title>
<ellipse fill="none" stroke="black" cx="301.35" cy="-111.12" rx="22.12" ry="22.12"/>
<text text-anchor="middle" x="301.35" y="-105.7" font-family="Times New Roman,serif" font-size="14.00">Q5</text>
</g>
<!-- Q4&#45;&gt;Q5 -->
<g id="edge9" class="edge">
<title>Q4&#45;&gt;Q5</title>
<path fill="none" stroke="black" d="M236.22,-124.28C244.26,-124.01 253.15,-123.4 261.23,-122.12 263.72,-121.73 266.28,-121.23 268.84,-120.66"/>
<polygon fill="black" stroke="black" points="269.55,-124.09 278.38,-118.24 267.83,-117.31 269.55,-124.09"/>
<text text-anchor="middle" x="257.48" y="-124.57" font-family="Times New Roman,serif" font-size="14.00">b</text>
</g>
<!-- Q1&#45;&gt;Q4 -->
<g id="edge4" class="edge">
<title>Q1&#45;&gt;Q4</title>
<path fill="none" stroke="black" d="M138.13,-103.21C144.38,-105.97 151.4,-108.86 157.99,-111.12 162.75,-112.76 167.83,-114.29 172.86,-115.7"/>
<polygon fill="black" stroke="black" points="171.64,-119 182.2,-118.16 173.42,-112.23 171.64,-119"/>
<text text-anchor="middle" x="161.74" y="-115.57" font-family="Times New Roman,serif" font-size="14.00">b</text>
</g>
<!-- Q3 -->
<g id="node5" class="node">
<title>Q3</title>
<ellipse fill="none" stroke="black" cx="389.1" cy="-61.12" rx="22.12" ry="22.12"/>
<text text-anchor="middle" x="389.1" y="-55.7" font-family="Times New Roman,serif" font-size="14.00">Q3</text>
</g>
<!-- Q1&#45;&gt;Q3 -->
<g id="edge3" class="edge">
<title>Q1&#45;&gt;Q3</title>
<path fill="none" stroke="black" d="M139.92,-89.44C145.75,-88.25 152.1,-87.04 157.99,-86.12 228,-75.19 310.74,-67.45 355.45,-63.7"/>
<polygon fill="black" stroke="black" points="355.57,-67.2 365.25,-62.89 354.99,-60.23 355.57,-67.2"/>
<text text-anchor="middle" x="257.48" y="-76.57" font-family="Times New Roman,serif" font-size="14.00">a</text>
</g>
<!-- Q2&#45;&gt;Q0 -->
<g id="edge5" class="edge">
<title>Q2&#45;&gt;Q0</title>
<path fill="none" stroke="black" d="M96.38,-16.1C88.05,-14.64 78.47,-14.28 70.24,-17.37 63.8,-19.79 57.69,-23.66 52.2,-28.02"/>
<polygon fill="black" stroke="black" points="49.9,-25.39 44.74,-34.65 54.54,-30.63 49.9,-25.39"/>
<text text-anchor="middle" x="73.99" y="-20.57" font-family="Times New Roman,serif" font-size="14.00">a</text>
</g>
<!-- Q2&#45;&gt;Q3 -->
<g id="edge6" class="edge">
<title>Q2&#45;&gt;Q3</title>
<path fill="none" stroke="black" d="M139.99,-25.18C186.77,-31.96 299.34,-48.27 355.34,-56.38"/>
<polygon fill="black" stroke="black" points="354.8,-59.84 365.2,-57.81 355.81,-52.91 354.8,-59.84"/>
<text text-anchor="middle" x="257.48" y="-45.57" font-family="Times New Roman,serif" font-size="14.00">b</text>
</g>
<!-- Q3&#45;&gt;Q3 -->
<g id="edge7" class="edge">
<title>Q3&#45;&gt;Q3</title>
<path fill="none" stroke="black" d="M381.07,-82.18C380.08,-92.3 382.76,-101.24 389.1,-101.24 392.86,-101.24 395.34,-98.09 396.52,-93.41"/>
<polygon fill="black" stroke="black" points="400,-93.86 397.04,-83.69 393.01,-93.48 400,-93.86"/>
<text text-anchor="middle" x="389.1" y="-103.69" font-family="Times New Roman,serif" font-size="14.00">a,b</text>
</g>
<!-- Q5&#45;&gt;Q4 -->
<g id="edge10" class="edge">
<title>Q5&#45;&gt;Q4</title>
<path fill="none" stroke="black" d="M280.3,-103.67C272.04,-101.55 262.39,-100.31 253.73,-102.37 249.95,-103.27 246.12,-104.56 242.38,-106.07"/>
<polygon fill="black" stroke="black" points="241.22,-102.75 233.6,-110.12 244.15,-109.11 241.22,-102.75"/>
<text text-anchor="middle" x="257.48" y="-105.57" font-family="Times New Roman,serif" font-size="14.00">a</text>
</g>
<!-- Q5&#45;&gt;Q3 -->
<g id="edge11" class="edge">
<title>Q5&#45;&gt;Q3</title>
<path fill="none" stroke="black" d="M320.96,-100.27C332.31,-93.66 347.04,-85.07 359.81,-77.62"/>
<polygon fill="black" stroke="black" points="361.35,-80.77 368.22,-72.71 357.82,-74.73 361.35,-80.77"/>
<text text-anchor="middle" x="345.23" y="-90.57" font-family="Times New Roman,serif" font-size="14.00">b</text>
</g>
</g>
</svg>
