<?xml version="1.0" encoding="UTF-8" standalone="no"?>
<!DOCTYPE svg PUBLIC "-//W3C//DTD SVG 1.1//EN"
 "http://www.w3.org/Graphics/SVG/1.1/DTD/svg11.dtd">
<!-- Generated by graphviz version 9.0.0 (20230911.1827)
 -->
<!-- Title: EQUIVALENTDFA Pages: 1 -->
<svg width="334pt" height="171pt"
 viewBox="0.00 0.00 333.98 170.56" xmlns="http://www.w3.org/2000/svg" xmlns:xlink="http://www.w3.org/1999/xlink">
<g id="graph0" class="graph" transform="scale(1 1) rotate(0) translate(4 166.56)">
<title>EQUIVALENTDFA</title>
<polygon fill="white" stroke="none" points="-4,4 -4,-166.56 329.98,-166.56 329.98,4 -4,4"/>
<!-- Q0 -->
<g id="node1" class="node">
<title>Q0</title>
<ellipse fill="none" stroke="black" cx="26.12" cy="-45.81" rx="22.12" ry="22.12"/>
<ellipse fill="none" stroke="black" cx="26.12" cy="-45.81" rx="26.12" ry="26.12"/>
<text text-anchor="middle" x="26.12" y="-40.39" font-family="Times New Roman,serif" font-size="14.00">Q0</text>
</g>
<!-- Q1 -->
<g id="node2" class="node">
<title>Q1</title>
<ellipse fill="none" stroke="black" cx="117.87" cy="-118.81" rx="22.12" ry="22.12"/>
<text text-anchor="middle" x="117.87" y="-113.39" font-family="Times New Roman,serif" font-size="14.00">Q1</text>
</g>
<!-- Q0&#45;&gt;Q1 -->
<g id="edge1" class="edge">
<title>Q0&#45;&gt;Q1</title>
<path fill="none" stroke="black" d="M40.09,-68.23C47.64,-79.62 58.07,-92.9 70.24,-101.81 74.78,-105.14 80.04,-107.87 85.36,-110.1"/>
<polygon fill="black" stroke="black" points="84.11,-113.38 94.71,-113.48 86.49,-106.79 84.11,-113.38"/>
<text text-anchor="middle" x="73.99" y="-108.26" font-family="Times New Roman,serif" font-size="14.00">a</text>
</g>
<!-- Q2 -->
<g id="node3" class="node">
<title>Q2</title>
<ellipse fill="none" stroke="black" cx="117.87" cy="-34.81" rx="22.12" ry="22.12"/>
<text text-anchor="middle" x="117.87" y="-29.39" font-family="Times New Roman,serif" font-size="14.00">Q2</text>
</g>
<!-- Q0&#45;&gt;Q2 -->
<g id="edge2" class="edge">
<title>Q0&#45;&gt;Q2</title>
<path fill="none" stroke="black" d="M52.12,-42.75C62.07,-41.53 73.65,-40.11 84.25,-38.81"/>
<polygon fill="black" stroke="black" points="84.65,-42.29 94.15,-37.6 83.79,-35.34 84.65,-42.29"/>
<text text-anchor="middle" x="73.99" y="-42.26" font-family="Times New Roman,serif" font-size="14.00">b</text>
</g>
<!-- Q3 -->
<g id="node4" class="node">
<title>Q3</title>
<ellipse fill="none" stroke="black" cx="303.85" cy="-41.81" rx="22.12" ry="22.12"/>
<text text-anchor="middle" x="303.85" y="-36.39" font-family="Times New Roman,serif" font-size="14.00">Q3</text>
</g>
<!-- Q0&#45;&gt;Q3 -->
<g id="edge3" class="edge">
<title>Q0&#45;&gt;Q3</title>
<path fill="none" stroke="black" d="M46.2,-28.88C59.15,-18.81 77.22,-7.32 95.74,-3.81 158.49,8.05 232.03,-13.97 272.42,-29.15"/>
<polygon fill="black" stroke="black" points="271.14,-32.41 281.73,-32.77 273.67,-25.88 271.14,-32.41"/>
<text text-anchor="middle" x="161.74" y="-5.26" font-family="Times New Roman,serif" font-size="14.00">c</text>
</g>
<!-- Q1&#45;&gt;Q0 -->
<g id="edge5" class="edge">
<title>Q1&#45;&gt;Q0</title>
<path fill="none" stroke="black" d="M101.69,-103.66C94.61,-96.83 85.95,-88.81 77.74,-82.06 71.37,-76.83 64.3,-71.49 57.51,-66.58"/>
<polygon fill="black" stroke="black" points="59.94,-64.01 49.76,-61.07 55.88,-69.72 59.94,-64.01"/>
<text text-anchor="middle" x="73.99" y="-84.26" font-family="Times New Roman,serif" font-size="14.00">b</text>
</g>
<!-- Q1&#45;&gt;Q3 -->
<g id="edge6" class="edge">
<title>Q1&#45;&gt;Q3</title>
<path fill="none" stroke="black" d="M137.53,-129.53C160,-140.91 198.37,-155.39 227.73,-140.81 256.39,-126.59 277.05,-95.62 289.37,-72.09"/>
<polygon fill="black" stroke="black" points="292.45,-73.75 293.76,-63.24 286.18,-70.64 292.45,-73.75"/>
<text text-anchor="middle" x="205.61" y="-149.26" font-family="Times New Roman,serif" font-size="14.00">c</text>
</g>
<!-- Q4 -->
<g id="node5" class="node">
<title>Q4</title>
<ellipse fill="none" stroke="black" cx="205.61" cy="-75.81" rx="22.12" ry="22.12"/>
<text text-anchor="middle" x="205.61" y="-70.39" font-family="Times New Roman,serif" font-size="14.00">Q4</text>
</g>
<!-- Q1&#45;&gt;Q4 -->
<g id="edge4" class="edge">
<title>Q1&#45;&gt;Q4</title>
<path fill="none" stroke="black" d="M137.9,-109.27C148.81,-103.8 162.75,-96.81 175.06,-90.64"/>
<polygon fill="black" stroke="black" points="176.62,-93.77 183.99,-86.16 173.48,-87.51 176.62,-93.77"/>
<text text-anchor="middle" x="161.74" y="-100.26" font-family="Times New Roman,serif" font-size="14.00">a</text>
</g>
<!-- Q2&#45;&gt;Q0 -->
<g id="edge7" class="edge">
<title>Q2&#45;&gt;Q0</title>
<path fill="none" stroke="black" d="M98.84,-23.4C90.24,-19.33 79.78,-16.35 70.24,-19.06 65.89,-20.31 61.54,-22.13 57.38,-24.24"/>
<polygon fill="black" stroke="black" points="55.72,-21.16 48.81,-29.2 59.22,-27.22 55.72,-21.16"/>
<text text-anchor="middle" x="73.99" y="-21.26" font-family="Times New Roman,serif" font-size="14.00">a</text>
</g>
<!-- Q2&#45;&gt;Q3 -->
<g id="edge9" class="edge">
<title>Q2&#45;&gt;Q3</title>
<path fill="none" stroke="black" d="M140.08,-32.45C152.68,-31.16 168.97,-29.71 183.49,-29.06 203.13,-28.19 208.14,-27.41 227.73,-29.06 242.01,-30.27 257.65,-32.73 270.94,-35.18"/>
<polygon fill="black" stroke="black" points="269.96,-38.55 280.44,-37 271.28,-31.68 269.96,-38.55"/>
<text text-anchor="middle" x="205.61" y="-31.26" font-family="Times New Roman,serif" font-size="14.00">c</text>
</g>
<!-- Q2&#45;&gt;Q4 -->
<g id="edge8" class="edge">
<title>Q2&#45;&gt;Q4</title>
<path fill="none" stroke="black" d="M138.32,-44.12C149.18,-49.31 162.92,-55.88 175.07,-61.69"/>
<polygon fill="black" stroke="black" points="173.33,-64.74 183.87,-65.89 176.35,-58.42 173.33,-64.74"/>
<text text-anchor="middle" x="161.74" y="-58.26" font-family="Times New Roman,serif" font-size="14.00">b</text>
</g>
<!-- Q3&#45;&gt;Q3 -->
<g id="edge10" class="edge">
<title>Q3&#45;&gt;Q3</title>
<path fill="none" stroke="black" d="M294.92,-62.46C293.68,-72.75 296.66,-81.94 303.85,-81.94 308.13,-81.94 310.91,-78.7 312.21,-73.91"/>
<polygon fill="black" stroke="black" points="315.71,-74.13 312.72,-63.97 308.72,-73.78 315.71,-74.13"/>
<text text-anchor="middle" x="303.85" y="-84.39" font-family="Times New Roman,serif" font-size="14.00">a,b,c</text>
</g>
<!-- Q4&#45;&gt;Q3 -->
<g id="edge12" class="edge">
<title>Q4&#45;&gt;Q3</title>
<path fill="none" stroke="black" d="M227.02,-68.6C240.04,-64.01 257.15,-57.96 271.83,-52.77"/>
<polygon fill="black" stroke="black" points="272.78,-56.15 281.05,-49.52 270.45,-49.55 272.78,-56.15"/>
<text text-anchor="middle" x="254.73" y="-64.26" font-family="Times New Roman,serif" font-size="14.00">b,c</text>
</g>
<!-- Q4&#45;&gt;Q4 -->
<g id="edge11" class="edge">
<title>Q4&#45;&gt;Q4</title>
<path fill="none" stroke="black" d="M197.59,-96.87C196.59,-107 199.27,-115.94 205.61,-115.94 209.38,-115.94 211.85,-112.78 213.03,-108.1"/>
<polygon fill="black" stroke="black" points="216.51,-108.55 213.55,-98.38 209.52,-108.18 216.51,-108.55"/>
<text text-anchor="middle" x="205.61" y="-118.39" font-family="Times New Roman,serif" font-size="14.00">a</text>
</g>
</g>
</svg>
