<?xml version="1.0" encoding="UTF-8" standalone="no"?>
<!DOCTYPE svg PUBLIC "-//W3C//DTD SVG 1.1//EN"
 "http://www.w3.org/Graphics/SVG/1.1/DTD/svg11.dtd">
<!-- Generated by graphviz version 9.0.0 (20230911.1827)
 -->
<!-- Title: EQUIVALENTDFA Pages: 1 -->
<svg width="244pt" height="130pt"
 viewBox="0.00 0.00 243.73 130.24" xmlns="http://www.w3.org/2000/svg" xmlns:xlink="http://www.w3.org/1999/xlink">
<g id="graph0" class="graph" transform="scale(1 1) rotate(0) translate(4 126.24)">
<title>EQUIVALENTDFA</title>
<polygon fill="white" stroke="none" points="-4,4 -4,-126.24 239.73,-126.24 239.73,4 -4,4"/>
<!-- Q0 -->
<g id="node1" class="node">
<title>Q0</title>
<ellipse fill="none" stroke="black" cx="26.12" cy="-61.12" rx="22.12" ry="22.12"/>
<ellipse fill="none" stroke="black" cx="26.12" cy="-61.12" rx="26.12" ry="26.12"/>
<text text-anchor="middle" x="26.12" y="-55.7" font-family="Times New Roman,serif" font-size="14.00">Q0</text>
</g>
<!-- Q1 -->
<g id="node2" class="node">
<title>Q1</title>
<ellipse fill="none" stroke="black" cx="121.87" cy="-96.12" rx="22.12" ry="22.12"/>
<ellipse fill="none" stroke="black" cx="121.87" cy="-96.12" rx="26.12" ry="26.12"/>
<text text-anchor="middle" x="121.87" y="-90.7" font-family="Times New Roman,serif" font-size="14.00">Q1</text>
</g>
<!-- Q0&#45;&gt;Q1 -->
<g id="edge1" class="edge">
<title>Q0&#45;&gt;Q1</title>
<path fill="none" stroke="black" d="M44.09,-80.61C51.36,-87.52 60.44,-94.49 70.24,-98.12 74.74,-99.79 79.63,-100.65 84.52,-100.98"/>
<polygon fill="black" stroke="black" points="84.31,-104.48 94.29,-100.92 84.26,-97.48 84.31,-104.48"/>
<text text-anchor="middle" x="73.99" y="-101.57" font-family="Times New Roman,serif" font-size="14.00">a</text>
</g>
<!-- Q2 -->
<g id="node3" class="node">
<title>Q2</title>
<ellipse fill="none" stroke="black" cx="121.87" cy="-26.12" rx="22.12" ry="22.12"/>
<ellipse fill="none" stroke="black" cx="121.87" cy="-26.12" rx="26.12" ry="26.12"/>
<text text-anchor="middle" x="121.87" y="-20.7" font-family="Times New Roman,serif" font-size="14.00">Q2</text>
</g>
<!-- Q0&#45;&gt;Q2 -->
<g id="edge2" class="edge">
<title>Q0&#45;&gt;Q2</title>
<path fill="none" stroke="black" d="M50.74,-51.09C57.05,-48.5 63.88,-45.76 70.24,-43.37 75.3,-41.47 80.68,-39.54 85.96,-37.7"/>
<polygon fill="black" stroke="black" points="86.8,-41.11 95.12,-34.56 84.53,-34.49 86.8,-41.11"/>
<text text-anchor="middle" x="73.99" y="-45.57" font-family="Times New Roman,serif" font-size="14.00">b</text>
</g>
<!-- Q1&#45;&gt;Q0 -->
<g id="edge4" class="edge">
<title>Q1&#45;&gt;Q0</title>
<path fill="none" stroke="black" d="M97.25,-86.09C90.94,-83.5 84.11,-80.76 77.74,-78.37 72.69,-76.47 67.31,-74.54 62.03,-72.7"/>
<polygon fill="black" stroke="black" points="63.46,-69.49 52.87,-69.56 61.19,-76.11 63.46,-69.49"/>
<text text-anchor="middle" x="73.99" y="-80.57" font-family="Times New Roman,serif" font-size="14.00">b</text>
</g>
<!-- Q3 -->
<g id="node4" class="node">
<title>Q3</title>
<ellipse fill="none" stroke="black" cx="213.61" cy="-60.12" rx="22.12" ry="22.12"/>
<text text-anchor="middle" x="213.61" y="-54.7" font-family="Times New Roman,serif" font-size="14.00">Q3</text>
</g>
<!-- Q1&#45;&gt;Q3 -->
<g id="edge3" class="edge">
<title>Q1&#45;&gt;Q3</title>
<path fill="none" stroke="black" d="M146.45,-86.66C157.31,-82.31 170.34,-77.08 181.95,-72.42"/>
<polygon fill="black" stroke="black" points="183.15,-75.71 191.13,-68.74 180.54,-69.21 183.15,-75.71"/>
<text text-anchor="middle" x="169.74" y="-80.57" font-family="Times New Roman,serif" font-size="14.00">a</text>
</g>
<!-- Q2&#45;&gt;Q0 -->
<g id="edge5" class="edge">
<title>Q2&#45;&gt;Q0</title>
<path fill="none" stroke="black" d="M96.54,-18.68C87.99,-17.27 78.46,-17.1 70.24,-20.37 63.17,-23.19 56.59,-27.77 50.8,-32.87"/>
<polygon fill="black" stroke="black" points="48.72,-30.01 44.01,-39.51 53.61,-35.02 48.72,-30.01"/>
<text text-anchor="middle" x="73.99" y="-22.57" font-family="Times New Roman,serif" font-size="14.00">a</text>
</g>
<!-- Q2&#45;&gt;Q3 -->
<g id="edge6" class="edge">
<title>Q2&#45;&gt;Q3</title>
<path fill="none" stroke="black" d="M146.45,-35.06C157.31,-39.17 170.34,-44.11 181.95,-48.51"/>
<polygon fill="black" stroke="black" points="180.53,-51.71 191.12,-51.98 183.01,-45.16 180.53,-51.71"/>
<text text-anchor="middle" x="169.74" y="-47.57" font-family="Times New Roman,serif" font-size="14.00">b</text>
</g>
<!-- Q3&#45;&gt;Q3 -->
<g id="edge7" class="edge">
<title>Q3&#45;&gt;Q3</title>
<path fill="none" stroke="black" d="M205.59,-81.18C204.59,-91.3 207.27,-100.24 213.61,-100.24 217.38,-100.24 219.85,-97.09 221.03,-92.41"/>
<polygon fill="black" stroke="black" points="224.51,-92.86 221.55,-82.69 217.52,-92.48 224.51,-92.86"/>
<text text-anchor="middle" x="213.61" y="-102.69" font-family="Times New Roman,serif" font-size="14.00">a,b</text>
</g>
</g>
</svg>
