<?xml version="1.0" encoding="UTF-8" standalone="no"?>
<!DOCTYPE svg PUBLIC "-//W3C//DTD SVG 1.1//EN"
 "http://www.w3.org/Graphics/SVG/1.1/DTD/svg11.dtd">
<!-- Generated by graphviz version 9.0.0 (20230911.1827)
 -->
<!-- Title: EQUIVALENTDFA Pages: 1 -->
<svg width="374pt" height="234pt"
 viewBox="0.00 0.00 373.97 234.02" xmlns="http://www.w3.org/2000/svg" xmlns:xlink="http://www.w3.org/1999/xlink">
<g id="graph0" class="graph" transform="scale(1 1) rotate(0) translate(4 230.02)">
<title>EQUIVALENTDFA</title>
<polygon fill="white" stroke="none" points="-4,4 -4,-230.02 369.97,-230.02 369.97,4 -4,4"/>
<!-- Q2 -->
<g id="node1" class="node">
<title>Q2</title>
<ellipse fill="none" stroke="black" cx="113.12" cy="-107.15" rx="22.12" ry="22.12"/>
<ellipse fill="none" stroke="black" cx="113.12" cy="-107.15" rx="26.12" ry="26.12"/>
<text text-anchor="middle" x="113.12" y="-101.72" font-family="Times New Roman,serif" font-size="14.00">Q2</text>
</g>
<!-- Q4 -->
<g id="node3" class="node">
<title>Q4</title>
<ellipse fill="none" stroke="black" cx="253.6" cy="-166.15" rx="22.12" ry="22.12"/>
<ellipse fill="none" stroke="black" cx="253.6" cy="-166.15" rx="26.12" ry="26.12"/>
<text text-anchor="middle" x="253.6" y="-160.72" font-family="Times New Roman,serif" font-size="14.00">Q4</text>
</g>
<!-- Q2&#45;&gt;Q4 -->
<g id="edge5" class="edge">
<title>Q2&#45;&gt;Q4</title>
<path fill="none" stroke="black" d="M137.61,-117.15C159.79,-126.6 193.32,-140.89 218.45,-151.6"/>
<polygon fill="black" stroke="black" points="217.03,-154.79 227.6,-155.49 219.78,-148.35 217.03,-154.79"/>
<text text-anchor="middle" x="183.36" y="-148.6" font-family="Times New Roman,serif" font-size="14.00">b,c</text>
</g>
<!-- Q1 -->
<g id="node5" class="node">
<title>Q1</title>
<ellipse fill="none" stroke="black" cx="343.85" cy="-80.15" rx="22.12" ry="22.12"/>
<text text-anchor="middle" x="343.85" y="-74.72" font-family="Times New Roman,serif" font-size="14.00">Q1</text>
</g>
<!-- Q2&#45;&gt;Q1 -->
<g id="edge6" class="edge">
<title>Q2&#45;&gt;Q1</title>
<path fill="none" stroke="black" d="M139.61,-104.66C176.06,-101.04 245.12,-93.88 303.73,-86.15 305.92,-85.86 308.19,-85.54 310.47,-85.22"/>
<polygon fill="black" stroke="black" points="310.88,-88.7 320.26,-83.77 309.85,-81.77 310.88,-88.7"/>
<text text-anchor="middle" x="253.6" y="-97.6" font-family="Times New Roman,serif" font-size="14.00">a</text>
</g>
<!-- Q3 -->
<g id="node2" class="node">
<title>Q3</title>
<ellipse fill="none" stroke="black" cx="183.36" cy="-55.15" rx="22.12" ry="22.12"/>
<ellipse fill="none" stroke="black" cx="183.36" cy="-55.15" rx="26.12" ry="26.12"/>
<text text-anchor="middle" x="183.36" y="-49.72" font-family="Times New Roman,serif" font-size="14.00">Q3</text>
</g>
<!-- Q3&#45;&gt;Q1 -->
<g id="edge7" class="edge">
<title>Q3&#45;&gt;Q1</title>
<path fill="none" stroke="black" d="M209.51,-58.32C228.76,-60.83 255.97,-64.54 279.73,-68.4 289.85,-70.04 300.85,-72.02 310.79,-73.88"/>
<polygon fill="black" stroke="black" points="309.89,-77.27 320.36,-75.7 311.19,-70.4 309.89,-77.27"/>
<text text-anchor="middle" x="253.6" y="-71.6" font-family="Times New Roman,serif" font-size="14.00">b,a,c</text>
</g>
<!-- Q4&#45;&gt;Q4 -->
<g id="edge8" class="edge">
<title>Q4&#45;&gt;Q4</title>
<path fill="none" stroke="black" d="M244.85,-191.09C244.24,-201.47 247.16,-210.27 253.6,-210.27 257.43,-210.27 260.01,-207.17 261.35,-202.47"/>
<polygon fill="black" stroke="black" points="264.83,-202.87 262.23,-192.6 257.86,-202.25 264.83,-202.87"/>
<text text-anchor="middle" x="253.6" y="-212.72" font-family="Times New Roman,serif" font-size="14.00">b,c</text>
</g>
<!-- Q4&#45;&gt;Q1 -->
<g id="edge9" class="edge">
<title>Q4&#45;&gt;Q1</title>
<path fill="none" stroke="black" d="M273.45,-148.86C282.67,-140.31 293.87,-129.79 303.73,-120.15 309.01,-114.97 314.61,-109.34 319.88,-103.98"/>
<polygon fill="black" stroke="black" points="322.24,-106.57 326.71,-96.96 317.23,-101.68 322.24,-106.57"/>
<text text-anchor="middle" x="300.73" y="-127.6" font-family="Times New Roman,serif" font-size="14.00">a</text>
</g>
<!-- Q0 -->
<g id="node4" class="node">
<title>Q0</title>
<ellipse fill="none" stroke="black" cx="22.12" cy="-53.15" rx="22.12" ry="22.12"/>
<text text-anchor="middle" x="22.12" y="-47.72" font-family="Times New Roman,serif" font-size="14.00">Q0</text>
</g>
<!-- Q0&#45;&gt;Q2 -->
<g id="edge2" class="edge">
<title>Q0&#45;&gt;Q2</title>
<path fill="none" stroke="black" d="M41.56,-64.33C52.84,-71.18 67.57,-80.11 80.65,-88.05"/>
<polygon fill="black" stroke="black" points="78.59,-90.89 88.95,-93.09 82.22,-84.91 78.59,-90.89"/>
<text text-anchor="middle" x="65.62" y="-82.6" font-family="Times New Roman,serif" font-size="14.00">a</text>
</g>
<!-- Q0&#45;&gt;Q3 -->
<g id="edge3" class="edge">
<title>Q0&#45;&gt;Q3</title>
<path fill="none" stroke="black" d="M44.6,-53.41C70.42,-53.74 114.17,-54.29 145.45,-54.68"/>
<polygon fill="black" stroke="black" points="145.2,-58.18 155.24,-54.8 145.29,-51.18 145.2,-58.18"/>
<text text-anchor="middle" x="65.62" y="-56.6" font-family="Times New Roman,serif" font-size="14.00">c</text>
</g>
<!-- Q0&#45;&gt;Q1 -->
<g id="edge1" class="edge">
<title>Q0&#45;&gt;Q1</title>
<path fill="none" stroke="black" d="M41.65,-41.86C75.15,-22.88 148.05,11.83 209.48,-4.4 250.12,-15.13 291.34,-41.42 316.98,-60.01"/>
<polygon fill="black" stroke="black" points="314.68,-62.66 324.8,-65.8 318.85,-57.04 314.68,-62.66"/>
<text text-anchor="middle" x="183.36" y="-7.6" font-family="Times New Roman,serif" font-size="14.00">b</text>
</g>
<!-- Q1&#45;&gt;Q1 -->
<g id="edge4" class="edge">
<title>Q1&#45;&gt;Q1</title>
<path fill="none" stroke="black" d="M335.96,-101.2C334.99,-111.33 337.62,-120.27 343.85,-120.27 347.55,-120.27 349.98,-117.12 351.14,-112.43"/>
<polygon fill="black" stroke="black" points="354.62,-112.88 351.66,-102.71 347.63,-112.51 354.62,-112.88"/>
<text text-anchor="middle" x="343.85" y="-122.72" font-family="Times New Roman,serif" font-size="14.00">b,a,c</text>
</g>
</g>
</svg>
