<?xml version="1.0" encoding="UTF-8" standalone="no"?>
<!DOCTYPE svg PUBLIC "-//W3C//DTD SVG 1.1//EN"
 "http://www.w3.org/Graphics/SVG/1.1/DTD/svg11.dtd">
<!-- Generated by graphviz version 9.0.0 (20230911.1827)
 -->
<!-- Title: nfa Pages: 1 -->
<svg width="327pt" height="154pt"
 viewBox="0.00 0.00 327.01 153.88" xmlns="http://www.w3.org/2000/svg" xmlns:xlink="http://www.w3.org/1999/xlink">
<g id="graph0" class="graph" transform="scale(1 1) rotate(0) translate(4 149.88)">
<title>nfa</title>
<polygon fill="white" stroke="none" points="-4,4 -4,-149.88 323.01,-149.88 323.01,4 -4,4"/>
<!-- q1 -->
<g id="node1" class="node">
<title>q1</title>
<ellipse fill="none" stroke="black" cx="294.88" cy="-110.13" rx="20.13" ry="20.13"/>
<ellipse fill="none" stroke="black" cx="294.88" cy="-110.13" rx="24.13" ry="24.13"/>
<text text-anchor="middle" x="294.88" y="-104.7" font-family="Times New Roman,serif" font-size="14.00">q1</text>
</g>
<!-- q0 -->
<g id="node2" class="node">
<title>q0</title>
<ellipse fill="none" stroke="black" cx="20.13" cy="-93.13" rx="20.13" ry="20.13"/>
<text text-anchor="middle" x="20.13" y="-87.7" font-family="Times New Roman,serif" font-size="14.00">q0</text>
</g>
<!-- q0&#45;&gt;q1 -->
<g id="edge2" class="edge">
<title>q0&#45;&gt;q1</title>
<path fill="none" stroke="black" d="M37.69,-103.94C49.55,-110.91 66.19,-119.21 82.25,-122.13 156.83,-135.65 177.81,-130.4 252.76,-119.13 255.07,-118.78 257.45,-118.38 259.84,-117.94"/>
<polygon fill="black" stroke="black" points="260.33,-121.41 269.44,-116.01 258.95,-114.55 260.33,-121.41"/>
<text text-anchor="middle" x="149.5" y="-132.58" font-family="Times New Roman,serif" font-size="14.00">a,c</text>
</g>
<!-- q2 -->
<g id="node3" class="node">
<title>q2</title>
<ellipse fill="none" stroke="black" cx="102.38" cy="-93.13" rx="20.13" ry="20.13"/>
<text text-anchor="middle" x="102.38" y="-87.7" font-family="Times New Roman,serif" font-size="14.00">q2</text>
</g>
<!-- q0&#45;&gt;q2 -->
<g id="edge1" class="edge">
<title>q0&#45;&gt;q2</title>
<path fill="none" stroke="black" d="M40.55,-93.13C49.56,-93.13 60.47,-93.13 70.56,-93.13"/>
<polygon fill="black" stroke="black" points="70.34,-96.63 80.34,-93.13 70.34,-89.63 70.34,-96.63"/>
<text text-anchor="middle" x="61.25" y="-95.58" font-family="Times New Roman,serif" font-size="14.00">a</text>
</g>
<!-- q3 -->
<g id="node4" class="node">
<title>q3</title>
<ellipse fill="none" stroke="black" cx="196.63" cy="-20.13" rx="20.13" ry="20.13"/>
<text text-anchor="middle" x="196.63" y="-14.7" font-family="Times New Roman,serif" font-size="14.00">q3</text>
</g>
<!-- q0&#45;&gt;q3 -->
<g id="edge3" class="edge">
<title>q0&#45;&gt;q3</title>
<path fill="none" stroke="black" d="M35.65,-79.95C47.43,-69.93 64.86,-56.52 82.25,-48.38 108.85,-35.92 141.62,-28.52 165.08,-24.44"/>
<polygon fill="black" stroke="black" points="165.61,-27.9 174.92,-22.84 164.49,-20.99 165.61,-27.9"/>
<text text-anchor="middle" x="102.38" y="-51.58" font-family="Times New Roman,serif" font-size="14.00">a</text>
</g>
<!-- q2&#45;&gt;q1 -->
<g id="edge4" class="edge">
<title>q2&#45;&gt;q1</title>
<path fill="none" stroke="black" d="M122.69,-94.85C154.65,-97.7 218.97,-103.44 259.03,-107.02"/>
<polygon fill="black" stroke="black" points="258.6,-110.49 268.87,-107.89 259.22,-103.52 258.6,-110.49"/>
<text text-anchor="middle" x="196.63" y="-104.58" font-family="Times New Roman,serif" font-size="14.00">b,c</text>
</g>
<!-- q2&#45;&gt;q3 -->
<g id="edge5" class="edge">
<title>q2&#45;&gt;q3</title>
<path fill="none" stroke="black" d="M118.61,-81.07C133.03,-69.66 154.91,-52.35 171.67,-39.09"/>
<polygon fill="black" stroke="black" points="173.52,-42.09 179.19,-33.14 169.17,-36.6 173.52,-42.09"/>
<text text-anchor="middle" x="149.5" y="-65.58" font-family="Times New Roman,serif" font-size="14.00">b,c</text>
</g>
<!-- q3&#45;&gt;q1 -->
<g id="edge6" class="edge">
<title>q3&#45;&gt;q1</title>
<path fill="none" stroke="black" d="M211.83,-33.41C226.66,-47.27 250.24,-69.32 268.32,-86.22"/>
<polygon fill="black" stroke="black" points="265.89,-88.75 275.59,-93.02 270.67,-83.63 265.89,-88.75"/>
<text text-anchor="middle" x="243.76" y="-72.58" font-family="Times New Roman,serif" font-size="14.00">b,c</text>
</g>
<!-- q3&#45;&gt;q3 -->
<g id="edge7" class="edge">
<title>q3&#45;&gt;q3</title>
<path fill="none" stroke="black" d="M188.22,-38.56C186.65,-48.81 189.45,-58.25 196.63,-58.25 201.01,-58.25 203.76,-54.75 204.88,-49.69"/>
<polygon fill="black" stroke="black" points="208.38,-50.13 205.02,-40.08 201.38,-50.03 208.38,-50.13"/>
<text text-anchor="middle" x="196.63" y="-60.7" font-family="Times New Roman,serif" font-size="14.00">b,c</text>
</g>
</g>
</svg>
