<?xml version="1.0" encoding="UTF-8" standalone="no"?>
<!DOCTYPE svg PUBLIC "-//W3C//DTD SVG 1.1//EN"
 "http://www.w3.org/Graphics/SVG/1.1/DTD/svg11.dtd">
<!-- Generated by graphviz version 9.0.0 (20230911.1827)
 -->
<!-- Title: nfa Pages: 1 -->
<svg width="234pt" height="149pt"
 viewBox="0.00 0.00 233.51 148.61" xmlns="http://www.w3.org/2000/svg" xmlns:xlink="http://www.w3.org/1999/xlink">
<g id="graph0" class="graph" transform="scale(1 1) rotate(0) translate(4 144.61)">
<title>nfa</title>
<polygon fill="white" stroke="none" points="-4,4 -4,-144.61 229.51,-144.61 229.51,4 -4,4"/>
<!-- q0 -->
<g id="node1" class="node">
<title>q0</title>
<ellipse fill="none" stroke="black" cx="24.13" cy="-66.86" rx="20.13" ry="20.13"/>
<ellipse fill="none" stroke="black" cx="24.13" cy="-66.86" rx="24.13" ry="24.13"/>
<text text-anchor="middle" x="24.13" y="-61.44" font-family="Times New Roman,serif" font-size="14.00">q0</text>
</g>
<!-- q1 -->
<g id="node2" class="node">
<title>q1</title>
<ellipse fill="none" stroke="black" cx="111.88" cy="-106.86" rx="20.13" ry="20.13"/>
<text text-anchor="middle" x="111.88" y="-101.44" font-family="Times New Roman,serif" font-size="14.00">q1</text>
</g>
<!-- q0&#45;&gt;q1 -->
<g id="edge2" class="edge">
<title>q0&#45;&gt;q1</title>
<path fill="none" stroke="black" d="M34.88,-88.77C41.72,-101.23 52.15,-115.72 66.25,-122.86 72.18,-125.86 78.81,-125.38 85.1,-123.31"/>
<polygon fill="black" stroke="black" points="86.2,-126.66 93.82,-119.31 83.28,-120.3 86.2,-126.66"/>
<text text-anchor="middle" x="70" y="-127.31" font-family="Times New Roman,serif" font-size="14.00">a</text>
</g>
<!-- q2 -->
<g id="node3" class="node">
<title>q2</title>
<ellipse fill="none" stroke="black" cx="111.88" cy="-48.86" rx="20.13" ry="20.13"/>
<text text-anchor="middle" x="111.88" y="-43.44" font-family="Times New Roman,serif" font-size="14.00">q2</text>
</g>
<!-- q0&#45;&gt;q2 -->
<g id="edge3" class="edge">
<title>q0&#45;&gt;q2</title>
<path fill="none" stroke="black" d="M48.11,-62.04C58.16,-59.93 70.09,-57.42 80.84,-55.17"/>
<polygon fill="black" stroke="black" points="81.34,-58.64 90.41,-53.16 79.9,-51.79 81.34,-58.64"/>
<text text-anchor="middle" x="70" y="-60.31" font-family="Times New Roman,serif" font-size="14.00">b</text>
</g>
<!-- q3 -->
<g id="node4" class="node">
<title>q3</title>
<ellipse fill="none" stroke="black" cx="205.38" cy="-48.86" rx="20.13" ry="20.13"/>
<text text-anchor="middle" x="205.38" y="-43.44" font-family="Times New Roman,serif" font-size="14.00">q3</text>
</g>
<!-- q0&#45;&gt;q3 -->
<g id="edge1" class="edge">
<title>q0&#45;&gt;q3</title>
<path fill="none" stroke="black" d="M39.02,-47.41C51.04,-32.4 69.89,-12.79 91.75,-4.11 122.55,8.11 158.09,-11.65 180.87,-28.66"/>
<polygon fill="black" stroke="black" points="178.59,-31.32 188.61,-34.74 182.91,-25.81 178.59,-31.32"/>
<text text-anchor="middle" x="111.88" y="-7.31" font-family="Times New Roman,serif" font-size="14.00">a</text>
</g>
<!-- q1&#45;&gt;q0 -->
<g id="edge5" class="edge">
<title>q1&#45;&gt;q0</title>
<path fill="none" stroke="black" d="M93.11,-98.57C82.59,-93.67 68.96,-87.31 56.67,-81.58"/>
<polygon fill="black" stroke="black" points="58.24,-78.45 47.7,-77.39 55.28,-84.79 58.24,-78.45"/>
<text text-anchor="middle" x="70" y="-91.31" font-family="Times New Roman,serif" font-size="14.00">b</text>
</g>
<!-- q1&#45;&gt;q3 -->
<g id="edge4" class="edge">
<title>q1&#45;&gt;q3</title>
<path fill="none" stroke="black" d="M129.24,-96.49C142.82,-87.89 162.38,-75.48 178.15,-65.49"/>
<polygon fill="black" stroke="black" points="180,-68.46 186.58,-60.15 176.26,-62.55 180,-68.46"/>
<text text-anchor="middle" x="158.63" y="-85.31" font-family="Times New Roman,serif" font-size="14.00">a,b</text>
</g>
<!-- q2&#45;&gt;q0 -->
<g id="edge6" class="edge">
<title>q2&#45;&gt;q0</title>
<path fill="none" stroke="black" d="M93.82,-39.13C85.46,-35.59 75.27,-33.11 66.25,-36.11 61.03,-37.85 55.93,-40.54 51.21,-43.62"/>
<polygon fill="black" stroke="black" points="49.31,-40.67 43.32,-49.41 53.45,-46.31 49.31,-40.67"/>
<text text-anchor="middle" x="70" y="-38.31" font-family="Times New Roman,serif" font-size="14.00">a</text>
</g>
<!-- q2&#45;&gt;q3 -->
<g id="edge7" class="edge">
<title>q2&#45;&gt;q3</title>
<path fill="none" stroke="black" d="M132.28,-48.86C144.29,-48.86 159.98,-48.86 173.65,-48.86"/>
<polygon fill="black" stroke="black" points="173.49,-52.36 183.49,-48.86 173.49,-45.36 173.49,-52.36"/>
<text text-anchor="middle" x="158.63" y="-51.31" font-family="Times New Roman,serif" font-size="14.00">b</text>
</g>
<!-- q3&#45;&gt;q3 -->
<g id="edge8" class="edge">
<title>q3&#45;&gt;q3</title>
<path fill="none" stroke="black" d="M196.98,-67.69C195.55,-77.79 198.35,-86.99 205.38,-86.99 209.56,-86.99 212.24,-83.75 213.43,-79"/>
<polygon fill="black" stroke="black" points="216.92,-79.31 213.74,-69.21 209.93,-79.09 216.92,-79.31"/>
<text text-anchor="middle" x="205.38" y="-89.44" font-family="Times New Roman,serif" font-size="14.00">a,b</text>
</g>
</g>
</svg>
