<?xml version="1.0" encoding="UTF-8" standalone="no"?>
<!DOCTYPE svg PUBLIC "-//W3C//DTD SVG 1.1//EN"
 "http://www.w3.org/Graphics/SVG/1.1/DTD/svg11.dtd">
<!-- Generated by graphviz version 9.0.0 (20230911.1827)
 -->
<!-- Title: nfa Pages: 1 -->
<svg width="232pt" height="122pt"
 viewBox="0.00 0.00 231.76 122.25" xmlns="http://www.w3.org/2000/svg" xmlns:xlink="http://www.w3.org/1999/xlink">
<g id="graph0" class="graph" transform="scale(1 1) rotate(0) translate(4 118.25)">
<title>nfa</title>
<polygon fill="white" stroke="none" points="-4,4 -4,-118.25 227.76,-118.25 227.76,4 -4,4"/>
<!-- q0 -->
<g id="node1" class="node">
<title>q0</title>
<ellipse fill="none" stroke="black" cx="24.13" cy="-57.13" rx="20.13" ry="20.13"/>
<ellipse fill="none" stroke="black" cx="24.13" cy="-57.13" rx="24.13" ry="24.13"/>
<text text-anchor="middle" x="24.13" y="-51.7" font-family="Times New Roman,serif" font-size="14.00">q0</text>
</g>
<!-- q1 -->
<g id="node2" class="node">
<title>q1</title>
<ellipse fill="none" stroke="black" cx="115.88" cy="-90.13" rx="20.13" ry="20.13"/>
<ellipse fill="none" stroke="black" cx="115.88" cy="-90.13" rx="24.13" ry="24.13"/>
<text text-anchor="middle" x="115.88" y="-84.7" font-family="Times New Roman,serif" font-size="14.00">q1</text>
</g>
<!-- q0&#45;&gt;q1 -->
<g id="edge1" class="edge">
<title>q0&#45;&gt;q1</title>
<path fill="none" stroke="black" d="M39.99,-75.42C47.08,-82.71 56.21,-90.27 66.25,-94.13 70.79,-95.87 75.74,-96.63 80.68,-96.76"/>
<polygon fill="black" stroke="black" points="80.73,-100.26 90.51,-96.18 80.32,-93.27 80.73,-100.26"/>
<text text-anchor="middle" x="70" y="-97.58" font-family="Times New Roman,serif" font-size="14.00">a</text>
</g>
<!-- q2 -->
<g id="node3" class="node">
<title>q2</title>
<ellipse fill="none" stroke="black" cx="115.88" cy="-24.13" rx="20.13" ry="20.13"/>
<ellipse fill="none" stroke="black" cx="115.88" cy="-24.13" rx="24.13" ry="24.13"/>
<text text-anchor="middle" x="115.88" y="-18.7" font-family="Times New Roman,serif" font-size="14.00">q2</text>
</g>
<!-- q0&#45;&gt;q2 -->
<g id="edge2" class="edge">
<title>q0&#45;&gt;q2</title>
<path fill="none" stroke="black" d="M46.3,-47.49C52.66,-44.73 59.69,-41.81 66.25,-39.38 71.14,-37.56 76.36,-35.77 81.5,-34.09"/>
<polygon fill="black" stroke="black" points="82.52,-37.44 91,-31.09 80.41,-30.77 82.52,-37.44"/>
<text text-anchor="middle" x="70" y="-41.58" font-family="Times New Roman,serif" font-size="14.00">b</text>
</g>
<!-- q1&#45;&gt;q0 -->
<g id="edge4" class="edge">
<title>q1&#45;&gt;q0</title>
<path fill="none" stroke="black" d="M93.15,-81.69C86.9,-79.29 80.06,-76.7 73.75,-74.38 68.66,-72.5 63.26,-70.54 57.98,-68.65"/>
<polygon fill="black" stroke="black" points="59.46,-65.47 48.87,-65.42 57.12,-72.06 59.46,-65.47"/>
<text text-anchor="middle" x="70" y="-76.58" font-family="Times New Roman,serif" font-size="14.00">b</text>
</g>
<!-- q3 -->
<g id="node4" class="node">
<title>q3</title>
<ellipse fill="none" stroke="black" cx="203.63" cy="-56.13" rx="20.13" ry="20.13"/>
<text text-anchor="middle" x="203.63" y="-50.7" font-family="Times New Roman,serif" font-size="14.00">q3</text>
</g>
<!-- q1&#45;&gt;q3 -->
<g id="edge3" class="edge">
<title>q1&#45;&gt;q3</title>
<path fill="none" stroke="black" d="M138.52,-81.55C149.27,-77.28 162.41,-72.07 173.99,-67.48"/>
<polygon fill="black" stroke="black" points="175.06,-70.82 183.07,-63.88 172.48,-64.31 175.06,-70.82"/>
<text text-anchor="middle" x="161.75" y="-75.58" font-family="Times New Roman,serif" font-size="14.00">a</text>
</g>
<!-- q2&#45;&gt;q0 -->
<g id="edge5" class="edge">
<title>q2&#45;&gt;q0</title>
<path fill="none" stroke="black" d="M92.99,-15.71C84.41,-13.66 74.63,-12.93 66.25,-16.38 59.01,-19.36 52.36,-24.3 46.62,-29.73"/>
<polygon fill="black" stroke="black" points="44.28,-27.11 39.94,-36.78 49.36,-31.93 44.28,-27.11"/>
<text text-anchor="middle" x="70" y="-18.58" font-family="Times New Roman,serif" font-size="14.00">a</text>
</g>
<!-- q2&#45;&gt;q3 -->
<g id="edge6" class="edge">
<title>q2&#45;&gt;q3</title>
<path fill="none" stroke="black" d="M138.96,-32.37C149.53,-36.31 162.33,-41.09 173.67,-45.32"/>
<polygon fill="black" stroke="black" points="172.37,-48.57 182.96,-48.79 174.82,-42.01 172.37,-48.57"/>
<text text-anchor="middle" x="161.75" y="-43.58" font-family="Times New Roman,serif" font-size="14.00">b</text>
</g>
<!-- q3&#45;&gt;q3 -->
<g id="edge7" class="edge">
<title>q3&#45;&gt;q3</title>
<path fill="none" stroke="black" d="M196.1,-74.96C194.82,-85.05 197.33,-94.25 203.63,-94.25 207.37,-94.25 209.77,-91.01 210.84,-86.26"/>
<polygon fill="black" stroke="black" points="214.33,-86.57 211.12,-76.47 207.34,-86.37 214.33,-86.57"/>
<text text-anchor="middle" x="203.63" y="-96.7" font-family="Times New Roman,serif" font-size="14.00">a,b</text>
</g>
</g>
</svg>
