<?xml version="1.0" encoding="UTF-8" standalone="no"?>
<!DOCTYPE svg PUBLIC "-//W3C//DTD SVG 1.1//EN"
 "http://www.w3.org/Graphics/SVG/1.1/DTD/svg11.dtd">
<!-- Generated by graphviz version 9.0.0 (20230911.1827)
 -->
<!-- Title: nfa1 Pages: 1 -->
<svg width="222pt" height="114pt"
 viewBox="0.00 0.00 222.26 114.00" xmlns="http://www.w3.org/2000/svg" xmlns:xlink="http://www.w3.org/1999/xlink">
<g id="graph0" class="graph" transform="scale(1 1) rotate(0) translate(4 110)">
<title>nfa1</title>
<polygon fill="white" stroke="none" points="-4,4 -4,-110 218.26,-110 218.26,4 -4,4"/>
<!-- q2 -->
<g id="node1" class="node">
<title>q2</title>
<ellipse fill="none" stroke="black" cx="190.13" cy="-48.13" rx="20.13" ry="20.13"/>
<ellipse fill="none" stroke="black" cx="190.13" cy="-48.13" rx="24.13" ry="24.13"/>
<text text-anchor="middle" x="190.13" y="-42.7" font-family="Times New Roman,serif" font-size="14.00">q2</text>
</g>
<!-- q2&#45;&gt;q2 -->
<g id="edge6" class="edge">
<title>q2&#45;&gt;q2</title>
<path fill="none" stroke="black" d="M181.8,-71.09C181.01,-81.37 183.78,-90.25 190.13,-90.25 193.9,-90.25 196.41,-87.12 197.66,-82.42"/>
<polygon fill="black" stroke="black" points="201.14,-82.82 198.35,-72.6 194.16,-82.33 201.14,-82.82"/>
<text text-anchor="middle" x="190.13" y="-92.7" font-family="Times New Roman,serif" font-size="14.00">b</text>
</g>
<!-- q0 -->
<g id="node2" class="node">
<title>q0</title>
<ellipse fill="none" stroke="black" cx="20.13" cy="-45.13" rx="20.13" ry="20.13"/>
<text text-anchor="middle" x="20.13" y="-39.7" font-family="Times New Roman,serif" font-size="14.00">q0</text>
</g>
<!-- q0&#45;&gt;q2 -->
<g id="edge1" class="edge">
<title>q0&#45;&gt;q2</title>
<path fill="none" stroke="black" d="M39.85,-50.58C45.69,-52.04 52.19,-53.4 58.25,-54.13 97.86,-58.86 108.22,-57.01 148,-54.13 150.22,-53.97 152.49,-53.76 154.78,-53.51"/>
<polygon fill="black" stroke="black" points="155.15,-57 164.64,-52.27 154.28,-50.05 155.15,-57"/>
<text text-anchor="middle" x="103.88" y="-59.58" font-family="Times New Roman,serif" font-size="14.00">a,b</text>
</g>
<!-- q0&#45;&gt;q0 -->
<g id="edge2" class="edge">
<title>q0&#45;&gt;q0</title>
<path fill="none" stroke="black" d="M12.6,-63.96C11.32,-74.05 13.83,-83.25 20.13,-83.25 23.87,-83.25 26.27,-80.01 27.34,-75.26"/>
<polygon fill="black" stroke="black" points="30.83,-75.57 27.61,-65.47 23.83,-75.37 30.83,-75.57"/>
<text text-anchor="middle" x="20.13" y="-85.7" font-family="Times New Roman,serif" font-size="14.00">a</text>
</g>
<!-- q1 -->
<g id="node3" class="node">
<title>q1</title>
<ellipse fill="none" stroke="black" cx="103.88" cy="-20.13" rx="20.13" ry="20.13"/>
<text text-anchor="middle" x="103.88" y="-14.7" font-family="Times New Roman,serif" font-size="14.00">q1</text>
</g>
<!-- q0&#45;&gt;q1 -->
<g id="edge3" class="edge">
<title>q0&#45;&gt;q1</title>
<path fill="none" stroke="black" d="M39.68,-39.45C49.64,-36.41 62.16,-32.58 73.42,-29.14"/>
<polygon fill="black" stroke="black" points="74.13,-32.58 82.67,-26.31 72.08,-25.88 74.13,-32.58"/>
<text text-anchor="middle" x="62" y="-36.58" font-family="Times New Roman,serif" font-size="14.00">b</text>
</g>
<!-- q1&#45;&gt;q2 -->
<g id="edge4" class="edge">
<title>q1&#45;&gt;q2</title>
<path fill="none" stroke="black" d="M123.16,-26.2C132.74,-29.39 144.78,-33.39 155.94,-37.1"/>
<polygon fill="black" stroke="black" points="154.65,-40.36 165.25,-40.19 156.86,-33.71 154.65,-40.36"/>
<text text-anchor="middle" x="145" y="-36.58" font-family="Times New Roman,serif" font-size="14.00">a</text>
</g>
<!-- q1&#45;&gt;q0 -->
<g id="edge5" class="edge">
<title>q1&#45;&gt;q0</title>
<path fill="none" stroke="black" d="M84.66,-12.69C76.4,-10.4 66.64,-9.21 58.25,-12.38 52.32,-14.62 46.73,-18.29 41.77,-22.37"/>
<polygon fill="black" stroke="black" points="39.65,-19.57 34.7,-28.93 44.41,-24.7 39.65,-19.57"/>
<text text-anchor="middle" x="62" y="-15.58" font-family="Times New Roman,serif" font-size="14.00">a</text>
</g>
</g>
</svg>
